<?xml version="1.0" encoding="UTF-8" standalone="no"?>
<!DOCTYPE svg PUBLIC "-//W3C//DTD SVG 1.1//EN" "http://www.w3.org/Graphics/SVG/1.1/DTD/svg11.dtd">
<svg xmlns="http://www.w3.org/2000/svg" xmlns:xlink="http://www.w3.org/1999/xlink" version="1.1" width="629.9214pt" height="629.9214pt" viewBox="0 0 629.9214 629.9214">
<g enable-background="new">
<g id="Layer-1" data-name="Camada 1">
<path transform="matrix(2.7777777,0,0,-2.7777777,0,629.9214)" d="M 67.1131 109.9261 C 71.4753 109.8289 76.9031 106.5393 80.2273 104.7189 C 82.9466 103.2299 89.3954 99.3002 90.1826 96.3519 C 86.9652 96.4236 88.2675 96.4551 85.8804 97.4781 C 82.3915 98.9734 75.0376 99.7452 70.5056 99.7452 C 71.5476 101.2453 70.617 100.5888 72.5411 101.1027 C 72.5411 104.4079 72.4938 104.2308 70.8134 106.1614 Z M 153.284 102.4603 L 155.9982 99.7452 C 150.5716 99.7452 149.9834 99.5754 145.5199 98.6888 L 136.3212 96.3519 C 137.0123 98.941 136.6588 97.6017 139.756 100.3822 C 139.86 100.4754 139.9989 100.6206 140.1035 100.7133 C 140.2081 100.806 140.3487 100.9494 140.4553 101.0401 L 159.2623 110.7332 C 161.3857 111.5317 161.4685 111.2834 164.1404 111.2834 C 163.9964 111.1924 163.7524 111.2686 163.677 111.0688 C 163.3689 110.2544 163.3241 111.0793 160.664 110.0098 C 158.4094 109.1032 159.5412 109.529 157.7951 108.129 C 154.5588 105.5339 155.1892 106.0617 153.284 102.4603 Z M 145.1421 113.3198 C 143.9368 112.0487 143.0813 111.1416 141.071 110.6048 C 141.2008 116.4444 143.2947 117.3917 136.3212 117.3917 C 131.6166 117.3917 135.9924 109.6733 125.2545 96.5628 C 122.6217 93.3486 120.6448 90.7554 118.4528 87.0772 C 115.5353 82.182 115.2232 78.4443 112.5734 76.6692 C 111.9345 78.0009 112.231 77.7515 111.7015 79.1906 L 107.678 87.3828 C 103.0399 95.8005 95.3172 101.5464 93.1895 112.2554 C 92.1212 117.6338 92.6201 117.3917 87.4684 117.3917 C 84.4588 117.3917 85.4328 113.7501 85.4328 110.6048 L 84.1326 111.3401 C 79.7814 113.724 81.182 113.4884 82.4009 118.3887 C 83.8877 124.3664 82.7186 138.3058 82.7186 143.1828 C 84.3664 143.9739 85.1837 143.8673 87.1824 144.8263 L 99.7877 151.2213 C 106.829 156.4024 111.8724 162.6202 113.2517 163.5443 C 114.3315 162.5196 115.0359 161.6601 116.2757 160.4605 C 119.6056 157.2389 113.7064 163.0687 116.9691 159.7966 C 117.0677 159.698 117.2064 159.5523 117.3036 159.4525 C 122.8669 153.7478 127.4839 149.9491 135.074 146.6858 C 136.8187 145.9358 143.7849 143.8832 143.7849 142.5042 C 143.7849 136.8445 142.2672 132.4089 142.977 128.1759 C 143.528 124.8885 143.6839 124.5691 143.7772 120.7777 C 143.8809 116.5567 144.8609 116.6967 145.1421 113.3198 Z M 92.2181 184.5842 C 92.2181 181.3156 94.4626 179.0016 94.5986 178.8208 L 95.2058 178.0707 C 99.1196 173.6062 102.8741 173.046 109.8592 173.046 C 108.1148 169.7482 107.3636 169.0566 104.9958 166.3727 L 104.37 165.6417 C 104.279 165.5345 104.1506 165.3803 104.0607 165.2723 C 99.5207 159.8224 88.1756 151.3273 81.362 151.3273 C 81.0108 151.3273 73.2195 156.8356 73.2195 149.97 C 73.2195 145.7116 75.2553 143.7412 75.2553 139.7894 C 75.2553 135.6265 76.4345 121.1596 74.0222 117.8915 C 72.5845 115.9441 70.594 117.3855 68.578 118.1557 C 63.1953 120.2119 57.4194 120.7854 51.5072 120.7854 C 51.6013 125.0101 53.0334 126.9811 53.5893 130.9195 C 54.2049 135.2806 54.9669 136.2376 54.9 141.8255 C 54.722 156.6711 62.7443 169.6414 76.936 174.7585 C 83.5027 177.126 84.8443 176.0423 87.0324 176.8759 C 91.1146 178.431 89.7627 180.7968 89.5039 183.9056 C 78.3641 186.861 55.7932 174.5158 52.8642 163.5443 L 51.5072 163.5443 C 51.2609 166.5079 49.5003 167.6829 48.793 170.3313 C 39.7899 170.3313 42.6719 166.142 44.0963 160.882 L 46.6571 149.87 C 47.7 143.8447 46.9783 137.6016 46.0755 131.6486 C 45.4521 127.5386 43.7221 124.6649 42.6866 120.7854 C 38.0974 120.7854 23.0063 117.4615 20.9798 113.2894 L 20.2958 110.6048 C 14.0638 110.6048 13.2443 110.6362 9.5051 107.8243 C 6.4922 105.5588 4.6899 103.6823 4.6899 98.388 C 7.8939 97.6414 12.8906 98.6406 15.4488 100.5214 C 17.8713 102.3024 20.884 105.8729 20.9741 109.9261 C 23.9973 107.9011 26.1317 108.5703 29.1881 109.8541 C 40.6057 114.6504 48.1099 112.6409 59.6494 112.6409 C 56.2898 110.306 52.5161 110.9106 56.194 105.8411 C 58.1216 103.1851 60.4551 101.8548 63.6341 101.0163 C 66.2179 100.3348 66.1068 99.8133 69.1486 99.7452 C 67.1227 96.9797 63.3501 99.3067 55.9406 95.3107 C 52.09 93.2338 39.9725 86.1267 39.9725 80.7415 C 39.9725 78.9083 40.2965 78.87 40.6511 77.3481 C 44.0331 77.0664 44.7077 76.233 47.158 78.9746 C 47.291 79.1232 47.6359 79.5813 47.7621 79.7352 C 53.8211 87.1345 56.6113 86.4782 63.042 89.5646 C 63.042 82.7654 70.7054 79.384 74.5767 79.384 C 77.1548 79.384 79.1691 80.2307 81.362 80.7415 C 80.6046 89.8447 71.0107 89.5646 63.7206 89.5646 C 65.3332 91.7666 70.2386 91.601 73.8981 91.601 C 85.1627 91.601 91.7889 88.321 98.0666 82.5197 C 101.1779 79.6448 104.5154 75.6663 106.1578 71.6094 C 106.2207 71.454 106.276 71.267 106.3363 71.1094 L 106.6966 70.1121 C 106.7553 69.9554 106.8279 69.7802 106.8863 69.6234 C 107.6091 67.682 107.7514 69.0647 107.8237 65.81 L 103.8688 70.6771 C 99.2738 76.2026 78.6478 83.8902 78.6478 76.6692 C 78.6478 70.2726 82.4666 72.9414 88.0931 71.1859 C 103.5437 66.3647 110.6249 49.6834 102.1272 35.5365 C 100.2711 32.4465 97.7525 29.9597 94.8495 27.8847 C 88.1957 23.129 81.2432 21.0149 72.5411 21.0149 C 71.6049 19.6169 70.5056 19.2532 70.5056 17.6216 C 70.5056 8.0663 92.91 17.7664 97.3344 20.6484 C 99.2622 21.9044 97.9087 21.7179 100.3603 22.3724 C 98.8943 16.8812 90.8612 12.2105 90.8612 7.4409 C 90.8612 4.3302 94.5014 2.4571 100.5248 9.3124 C 106.2666 15.8474 108.8198 22.0139 112.5734 29.8383 C 114.7493 28.3808 115.6218 25.5472 116.7233 23.1299 C 117.9181 20.5084 119.2085 18.2027 120.8378 15.7076 C 132.5446 -2.219 136.275 6.4468 135.8495 8.401 C 134.7854 13.2902 126.6197 16.6504 126.1437 22.3724 C 128.5858 21.7205 133.4509 17.9087 136.7223 16.6654 C 138.9756 15.8091 140.9644 15.3802 143.1995 14.9998 C 149.1321 13.9898 152.7279 11.4392 155.9982 17.6216 C 155.1977 19.1347 154.8663 19.6654 153.9626 21.0149 C 145.2308 21.0149 138.8656 22.9791 132.0574 27.6092 L 131.2648 28.1741 C 131.1511 28.2589 130.9932 28.3822 130.8815 28.4695 C 128.6583 30.2051 125.9042 32.58 124.4446 34.926 L 123.4922 36.688 C 116.2874 50.2869 123.0316 66.7253 137.8865 71.0314 C 141.1605 71.9804 141.048 71.473 144.3895 71.9929 C 150.6266 72.9635 152.0271 84.8347 130.6899 76.1941 C 123.9256 73.455 121.0028 67.4266 118.6801 66.4886 C 118.7708 70.5586 122.4706 76.0088 125.0813 79.0897 C 125.5748 79.6723 125.6051 79.7097 126.0215 80.1848 C 130.5927 85.4002 137.2297 89.981 144.3969 90.989 C 148.3486 91.5449 160.5949 92.5526 162.7832 89.5646 C 154.8255 89.5646 146.5483 89.6933 144.4635 80.7415 C 150.575 80.2329 152.2678 77.2155 159.1362 82.3535 C 159.963 82.9718 161.3911 84.2539 161.998 84.9209 C 163.724 86.8181 163.4618 86.2007 163.4618 89.5646 L 170.2321 86.8354 C 172.9043 85.2817 173.6223 84.3897 175.8526 82.2767 L 180.686 77.5414 C 183.0138 76.0541 186.5313 76.8804 186.5313 80.0629 C 186.5313 87.1883 172.461 94.6556 166.5065 96.6827 C 161.9714 98.2264 158.7569 97.8318 157.3551 99.7452 C 162.216 99.8538 167.1732 101.8979 169.7221 105.7 C 170.7778 107.2743 171.3855 107.9079 172.2824 109.2475 C 170.9515 110.139 170.8875 110.5197 169.5251 111.24 L 166.176 112.6409 C 176.9026 112.6409 183.5376 115.1734 196.331 110.2269 C 203.017 107.6417 205.5549 106.8942 204.8511 115.3559 C 201.6527 115.6221 203.5837 115.9084 200.3323 116.9442 L 184.6406 120.9305 C 182.52 121.7925 182.274 124.9084 181.497 127.2878 C 178.4186 136.7155 178.6961 146.8049 180.8028 156.3789 C 181.9896 161.7729 187.6961 170.3313 179.0677 170.3313 C 176.6971 170.3313 175.0558 165.5226 174.9966 162.8654 C 172.2305 164.7181 168.7683 172.1863 161.0399 177.4108 L 156.6777 179.8342 C 150.7552 183.0747 143.5827 185.4394 136.9998 183.9056 C 136.7048 180.3583 136.2487 181.0222 136.9998 177.7972 C 139.5232 176.5857 143.6618 176.6891 146.5268 175.7889 C 147.8591 175.3702 149.5993 174.8052 151.0393 174.1941 L 153.7818 172.8652 C 164.107 166.947 171.6965 156.3639 171.6026 141.1455 C 171.5655 135.1015 172.1268 130.9592 173.7947 125.6916 C 174.5042 123.4514 174.9257 123.9647 174.9966 120.7854 C 153.1077 120.7854 152.9918 110.785 151.6037 121.8178 C 149.2464 140.5542 153.284 143.9147 153.284 150.6487 C 153.284 152.7352 151.2964 153.3637 149.2132 153.3637 C 145.6381 153.3637 148.0734 148.8864 139.4229 153.0726 C 130.0581 157.6043 121.6273 163.6262 116.6445 173.046 C 123.9474 173.046 127.7773 173.8395 131.6869 179.0393 C 140.3348 190.5409 123.7774 185.6458 119.6365 180.9125 C 117.7279 178.7306 116.6445 177.2725 116.6445 173.7249 C 113.9295 174.3576 113.3325 175.0663 110.5379 173.7249 C 109.3343 176.2339 108.447 179.2723 106.1527 181.5551 C 104.8442 182.8573 106.1753 181.6722 104.6373 182.7541 C 99.4351 186.4123 92.2181 187.141 92.2181 184.5842 Z " fill="#e8e8e7" fill-rule="evenodd"/>
<path transform="matrix(2.7777777,0,0,-2.7777777,0,629.9214)" stroke-width=".5669" stroke-linecap="butt" stroke-miterlimit="22.925585" stroke-linejoin="miter" fill="none" stroke="#000000" d="M 67.1131 109.9261 C 71.4753 109.8289 76.9031 106.5393 80.2273 104.7189 C 82.9466 103.2299 89.3954 99.3002 90.1826 96.3519 C 86.9652 96.4236 88.2675 96.4551 85.8804 97.4781 C 82.3915 98.9734 75.0376 99.7452 70.5056 99.7452 C 71.5476 101.2453 70.617 100.5888 72.5411 101.1027 C 72.5411 104.4079 72.4938 104.2308 70.8134 106.1614 Z M 153.284 102.4603 L 155.9982 99.7452 C 150.5716 99.7452 149.9834 99.5754 145.5199 98.6888 L 136.3212 96.3519 C 137.0123 98.941 136.6588 97.6017 139.756 100.3822 C 139.86 100.4754 139.9989 100.6206 140.1035 100.7133 C 140.2081 100.806 140.3487 100.9494 140.4553 101.0401 L 159.2623 110.7332 C 161.3857 111.5317 161.4685 111.2834 164.1404 111.2834 C 163.9964 111.1924 163.7524 111.2686 163.677 111.0688 C 163.3689 110.2544 163.3241 111.0793 160.664 110.0098 C 158.4094 109.1032 159.5412 109.529 157.7951 108.129 C 154.5588 105.5339 155.1892 106.0617 153.284 102.4603 Z M 145.1421 113.3198 C 143.9368 112.0487 143.0813 111.1416 141.071 110.6048 C 141.2008 116.4444 143.2947 117.3917 136.3212 117.3917 C 131.6166 117.3917 135.9924 109.6733 125.2545 96.5628 C 122.6217 93.3486 120.6448 90.7554 118.4528 87.0772 C 115.5353 82.182 115.2232 78.4443 112.5734 76.6692 C 111.9345 78.0009 112.231 77.7515 111.7015 79.1906 L 107.678 87.3828 C 103.0399 95.8005 95.3172 101.5464 93.1895 112.2554 C 92.1212 117.6338 92.6201 117.3917 87.4684 117.3917 C 84.4588 117.3917 85.4328 113.7501 85.4328 110.6048 L 84.1326 111.3401 C 79.7814 113.724 81.182 113.4884 82.4009 118.3887 C 83.8877 124.3664 82.7186 138.3058 82.7186 143.1828 C 84.3664 143.9739 85.1837 143.8673 87.1824 144.8263 L 99.7877 151.2213 C 106.829 156.4024 111.8724 162.6202 113.2517 163.5443 C 114.3315 162.5196 115.0359 161.6601 116.2757 160.4605 C 119.6056 157.2389 113.7064 163.0687 116.9691 159.7966 C 117.0677 159.698 117.2064 159.5523 117.3036 159.4525 C 122.8669 153.7478 127.4839 149.9491 135.074 146.6858 C 136.8187 145.9358 143.7849 143.8832 143.7849 142.5042 C 143.7849 136.8445 142.2672 132.4089 142.977 128.1759 C 143.528 124.8885 143.6839 124.5691 143.7772 120.7777 C 143.8809 116.5567 144.8609 116.6967 145.1421 113.3198 Z M 92.2181 184.5842 C 92.2181 181.3156 94.4626 179.0016 94.5986 178.8208 L 95.2058 178.0707 C 99.1196 173.6062 102.8741 173.046 109.8592 173.046 C 108.1148 169.7482 107.3636 169.0566 104.9958 166.3727 L 104.37 165.6417 C 104.279 165.5345 104.1506 165.3803 104.0607 165.2723 C 99.5207 159.8224 88.1756 151.3273 81.362 151.3273 C 81.0108 151.3273 73.2195 156.8356 73.2195 149.97 C 73.2195 145.7116 75.2553 143.7412 75.2553 139.7894 C 75.2553 135.6265 76.4345 121.1596 74.0222 117.8915 C 72.5845 115.9441 70.594 117.3855 68.578 118.1557 C 63.1953 120.2119 57.4194 120.7854 51.5072 120.7854 C 51.6013 125.0101 53.0334 126.9811 53.5893 130.9195 C 54.2049 135.2806 54.9669 136.2376 54.9 141.8255 C 54.722 156.6711 62.7443 169.6414 76.936 174.7585 C 83.5027 177.126 84.8443 176.0423 87.0324 176.8759 C 91.1146 178.431 89.7627 180.7968 89.5039 183.9056 C 78.3641 186.861 55.7932 174.5158 52.8642 163.5443 L 51.5072 163.5443 C 51.2609 166.5079 49.5003 167.6829 48.793 170.3313 C 39.7899 170.3313 42.6719 166.142 44.0963 160.882 L 46.6571 149.87 C 47.7 143.8447 46.9783 137.6016 46.0755 131.6486 C 45.4521 127.5386 43.7221 124.6649 42.6866 120.7854 C 38.0974 120.7854 23.0063 117.4615 20.9798 113.2894 L 20.2958 110.6048 C 14.0638 110.6048 13.2443 110.6362 9.5051 107.8243 C 6.4922 105.5588 4.6899 103.6823 4.6899 98.388 C 7.8939 97.6414 12.8906 98.6406 15.4488 100.5214 C 17.8713 102.3024 20.884 105.8729 20.9741 109.9261 C 23.9973 107.9011 26.1317 108.5703 29.1881 109.8541 C 40.6057 114.6504 48.1099 112.6409 59.6494 112.6409 C 56.2898 110.306 52.5161 110.9106 56.194 105.8411 C 58.1216 103.1851 60.4551 101.8548 63.6341 101.0163 C 66.2179 100.3348 66.1068 99.8133 69.1486 99.7452 C 67.1227 96.9797 63.3501 99.3067 55.9406 95.3107 C 52.09 93.2338 39.9725 86.1267 39.9725 80.7415 C 39.9725 78.9083 40.2965 78.87 40.6511 77.3481 C 44.0331 77.0664 44.7077 76.233 47.158 78.9746 C 47.291 79.1232 47.6359 79.5813 47.7621 79.7352 C 53.8211 87.1345 56.6113 86.4782 63.042 89.5646 C 63.042 82.7654 70.7054 79.384 74.5767 79.384 C 77.1548 79.384 79.1691 80.2307 81.362 80.7415 C 80.6046 89.8447 71.0107 89.5646 63.7206 89.5646 C 65.3332 91.7666 70.2386 91.601 73.8981 91.601 C 85.1627 91.601 91.7889 88.321 98.0666 82.5197 C 101.1779 79.6448 104.5154 75.6663 106.1578 71.6094 C 106.2207 71.454 106.276 71.267 106.3363 71.1094 L 106.6966 70.1121 C 106.7553 69.9554 106.8279 69.7802 106.8863 69.6234 C 107.6091 67.682 107.7514 69.0647 107.8237 65.81 L 103.8688 70.6771 C 99.2738 76.2026 78.6478 83.8902 78.6478 76.6692 C 78.6478 70.2726 82.4666 72.9414 88.0931 71.1859 C 103.5437 66.3647 110.6249 49.6834 102.1272 35.5365 C 100.2711 32.4465 97.7525 29.9597 94.8495 27.8847 C 88.1957 23.129 81.2432 21.0149 72.5411 21.0149 C 71.6049 19.6169 70.5056 19.2532 70.5056 17.6216 C 70.5056 8.0663 92.91 17.7664 97.3344 20.6484 C 99.2622 21.9044 97.9087 21.7179 100.3603 22.3724 C 98.8943 16.8812 90.8612 12.2105 90.8612 7.4409 C 90.8612 4.3302 94.5014 2.4571 100.5248 9.3124 C 106.2666 15.8474 108.8198 22.0139 112.5734 29.8383 C 114.7493 28.3808 115.6218 25.5472 116.7233 23.1299 C 117.9181 20.5084 119.2085 18.2027 120.8378 15.7076 C 132.5446 -2.219 136.275 6.4468 135.8495 8.401 C 134.7854 13.2902 126.6197 16.6504 126.1437 22.3724 C 128.5858 21.7205 133.4509 17.9087 136.7223 16.6654 C 138.9756 15.8091 140.9644 15.3802 143.1995 14.9998 C 149.1321 13.9898 152.7279 11.4392 155.9982 17.6216 C 155.1977 19.1347 154.8663 19.6654 153.9626 21.0149 C 145.2308 21.0149 138.8656 22.9791 132.0574 27.6092 L 131.2648 28.1741 C 131.1511 28.2589 130.9932 28.3822 130.8815 28.4695 C 128.6583 30.2051 125.9042 32.58 124.4446 34.926 L 123.4922 36.688 C 116.2874 50.2869 123.0316 66.7253 137.8865 71.0314 C 141.1605 71.9804 141.048 71.473 144.3895 71.9929 C 150.6266 72.9635 152.0271 84.8347 130.6899 76.1941 C 123.9256 73.455 121.0028 67.4266 118.6801 66.4886 C 118.7708 70.5586 122.4706 76.0088 125.0813 79.0897 C 125.5748 79.6723 125.6051 79.7097 126.0215 80.1848 C 130.5927 85.4002 137.2297 89.981 144.3969 90.989 C 148.3486 91.5449 160.5949 92.5526 162.7832 89.5646 C 154.8255 89.5646 146.5483 89.6933 144.4635 80.7415 C 150.575 80.2329 152.2678 77.2155 159.1362 82.3535 C 159.963 82.9718 161.3911 84.2539 161.998 84.9209 C 163.724 86.8181 163.4618 86.2007 163.4618 89.5646 L 170.2321 86.8354 C 172.9043 85.2817 173.6223 84.3897 175.8526 82.2767 L 180.686 77.5414 C 183.0138 76.0541 186.5313 76.8804 186.5313 80.0629 C 186.5313 87.1883 172.461 94.6556 166.5065 96.6827 C 161.9714 98.2264 158.7569 97.8318 157.3551 99.7452 C 162.216 99.8538 167.1732 101.8979 169.7221 105.7 C 170.7778 107.2743 171.3855 107.9079 172.2824 109.2475 C 170.9515 110.139 170.8875 110.5197 169.5251 111.24 L 166.176 112.6409 C 176.9026 112.6409 183.5376 115.1734 196.331 110.2269 C 203.017 107.6417 205.5549 106.8942 204.8511 115.3559 C 201.6527 115.6221 203.5837 115.9084 200.3323 116.9442 L 184.6406 120.9305 C 182.52 121.7925 182.274 124.9084 181.497 127.2878 C 178.4186 136.7155 178.6961 146.8049 180.8028 156.3789 C 181.9896 161.7729 187.6961 170.3313 179.0677 170.3313 C 176.6971 170.3313 175.0558 165.5226 174.9966 162.8654 C 172.2305 164.7181 168.7683 172.1863 161.0399 177.4108 L 156.6777 179.8342 C 150.7552 183.0747 143.5827 185.4394 136.9998 183.9056 C 136.7048 180.3583 136.2487 181.0222 136.9998 177.7972 C 139.5232 176.5857 143.6618 176.6891 146.5268 175.7889 C 147.8591 175.3702 149.5993 174.8052 151.0393 174.1941 L 153.7818 172.8652 C 164.107 166.947 171.6965 156.3639 171.6026 141.1455 C 171.5655 135.1015 172.1268 130.9592 173.7947 125.6916 C 174.5042 123.4514 174.9257 123.9647 174.9966 120.7854 C 153.1077 120.7854 152.9918 110.785 151.6037 121.8178 C 149.2464 140.5542 153.284 143.9147 153.284 150.6487 C 153.284 152.7352 151.2964 153.3637 149.2132 153.3637 C 145.6381 153.3637 148.0734 148.8864 139.4229 153.0726 C 130.0581 157.6043 121.6273 163.6262 116.6445 173.046 C 123.9474 173.046 127.7773 173.8395 131.6869 179.0393 C 140.3348 190.5409 123.7774 185.6458 119.6365 180.9125 C 117.7279 178.7306 116.6445 177.2725 116.6445 173.7249 C 113.9295 174.3576 113.3325 175.0663 110.5379 173.7249 C 109.3343 176.2339 108.447 179.2723 106.1527 181.5551 C 104.8442 182.8573 106.1753 181.6722 104.6373 182.7541 C 99.4351 186.4123 92.2181 187.141 92.2181 184.5842 Z "/>
<path transform="matrix(2.7777777,0,0,-2.7777777,0,629.9214)" d="M 120.037 120.7854 L 115.2876 120.7854 L 115.2876 128.2513 L 122.0726 128.2513 L 122.0726 122.8215 C 122.0726 121.2576 121.6006 120.7854 120.037 120.7854 Z M 103.7526 122.8215 L 103.7526 128.2513 L 111.2165 128.2513 L 111.2165 120.7854 L 105.7884 120.7854 C 104.2248 120.7854 103.7526 121.2576 103.7526 122.8215 Z M 115.2876 134.3597 C 115.2876 137.9517 114.4278 142.9472 119.3216 138.4421 C 121.085 136.8187 121.4501 135.6752 122.0726 133.0021 C 117.9062 132.1197 122.3016 133.0021 118.0015 133.0021 C 116.3435 133.0021 115.2876 131.4969 115.2876 134.3597 Z M 111.2165 140.468 L 111.2165 133.0021 C 106.6195 133.0021 107.5842 132.1092 103.7526 133.0021 L 106.069 137.4724 C 107.2843 139.0431 108.815 140.2682 111.2165 140.468 Z M 87.4684 141.1466 C 87.2277 138.2519 87.0256 139.9802 87.2135 137.4361 L 87.5923 122.9454 C 88.6277 120.2525 91.7399 122.4371 94.3523 119.5268 C 95.6254 118.1083 96.3825 114.4097 97.1399 112.1349 C 98.1567 109.0817 98.3477 108.0666 99.9561 105.4497 C 100.5905 104.4176 101.2306 103.5777 101.8457 102.5889 L 112.5734 87.5288 C 116.06 88.4599 116.0736 91.7592 119.2547 95.777 C 121.5249 98.6451 124.0234 101.4457 125.9583 104.6818 C 127.976 108.0553 128.6368 111.5008 130.0113 115.5591 C 132.7671 123.698 134.1975 119.8208 139.0354 122.1429 C 140.7603 125.7386 139.0354 126.6812 139.0354 130.2874 C 139.0354 134.2145 139.714 135.934 139.714 140.468 C 138.479 141.0608 138.6456 140.7832 137.677 141.1452 C 123.3278 146.5067 118.5279 153.7421 114.8389 156.3086 C 114.2065 156.7488 113.1945 157.1377 112.5734 157.4362 L 110.3465 154.9123 C 106.2797 150.6943 92.9492 141.2688 87.4684 141.1466 Z " fill="#f1f2f3" fill-rule="evenodd"/>
<path transform="matrix(2.7777777,0,0,-2.7777777,0,629.9214)" stroke-width=".5669" stroke-linecap="butt" stroke-miterlimit="22.925585" stroke-linejoin="miter" fill="none" stroke="#000000" d="M 120.037 120.7854 L 115.2876 120.7854 L 115.2876 128.2513 L 122.0726 128.2513 L 122.0726 122.8215 C 122.0726 121.2576 121.6006 120.7854 120.037 120.7854 Z M 103.7526 122.8215 L 103.7526 128.2513 L 111.2165 128.2513 L 111.2165 120.7854 L 105.7884 120.7854 C 104.2248 120.7854 103.7526 121.2576 103.7526 122.8215 Z M 115.2876 134.3597 C 115.2876 137.9517 114.4278 142.9472 119.3216 138.4421 C 121.085 136.8187 121.4501 135.6752 122.0726 133.0021 C 117.9062 132.1197 122.3016 133.0021 118.0015 133.0021 C 116.3435 133.0021 115.2876 131.4969 115.2876 134.3597 Z M 111.2165 140.468 L 111.2165 133.0021 C 106.6195 133.0021 107.5842 132.1092 103.7526 133.0021 L 106.069 137.4724 C 107.2843 139.0431 108.815 140.2682 111.2165 140.468 Z M 87.4684 141.1466 C 87.2277 138.2519 87.0256 139.9802 87.2135 137.4361 L 87.5923 122.9454 C 88.6277 120.2525 91.7399 122.4371 94.3523 119.5268 C 95.6254 118.1083 96.3825 114.4097 97.1399 112.1349 C 98.1567 109.0817 98.3477 108.0666 99.9561 105.4497 C 100.5905 104.4176 101.2306 103.5777 101.8457 102.5889 L 112.5734 87.5288 C 116.06 88.4599 116.0736 91.7592 119.2547 95.777 C 121.5249 98.6451 124.0234 101.4457 125.9583 104.6818 C 127.976 108.0553 128.6368 111.5008 130.0113 115.5591 C 132.7671 123.698 134.1975 119.8208 139.0354 122.1429 C 140.7603 125.7386 139.0354 126.6812 139.0354 130.2874 C 139.0354 134.2145 139.714 135.934 139.714 140.468 C 138.479 141.0608 138.6456 140.7832 137.677 141.1452 C 123.3278 146.5067 118.5279 153.7421 114.8389 156.3086 C 114.2065 156.7488 113.1945 157.1377 112.5734 157.4362 L 110.3465 154.9123 C 106.2797 150.6943 92.9492 141.2688 87.4684 141.1466 Z "/>
<path transform="matrix(2.7777777,0,0,-2.7777777,0,629.9214)" d="M 180.4246 90.9221 C 181.6523 90.4776 187.6462 85.4926 191.9594 85.4926 C 192.9668 85.4926 195.4287 86.6032 196.5682 86.9907 C 197.263 87.2269 203.0803 87.7292 198.5851 92.12 C 196.7006 93.9609 194.8326 94.7826 192.4379 95.4731 C 187.1751 96.9914 180.8405 95.9224 180.4246 90.9221 Z " fill="#e0e1e0" fill-rule="evenodd"/>
<path transform="matrix(2.7777777,0,0,-2.7777777,0,629.9214)" stroke-width=".5669" stroke-linecap="butt" stroke-miterlimit="22.925585" stroke-linejoin="miter" fill="none" stroke="#000000" d="M 180.4246 90.9221 C 181.6523 90.4776 187.6462 85.4926 191.9594 85.4926 C 192.9668 85.4926 195.4287 86.6032 196.5682 86.9907 C 197.263 87.2269 203.0803 87.7292 198.5851 92.12 C 196.7006 93.9609 194.8326 94.7826 192.4379 95.4731 C 187.1751 96.9914 180.8405 95.9224 180.4246 90.9221 Z "/>
<path transform="matrix(2.7777777,0,0,-2.7777777,0,629.9214)" d="M 26.4025 89.5646 C 26.4025 87.3439 27.987 87.4823 29.8346 86.8898 C 35.0334 85.2231 34.0656 84.7315 41.061 87.7972 C 44.1312 89.1425 44.4694 89.875 46.0791 92.2796 C 43.0526 96.8006 36.1548 97.1396 31.0691 94.3985 C 29.4795 93.5416 26.4025 91.4604 26.4025 89.5646 Z " fill="#e0e1e0" fill-rule="evenodd"/>
<path transform="matrix(2.7777777,0,0,-2.7777777,0,629.9214)" stroke-width=".5669" stroke-linecap="butt" stroke-miterlimit="22.925585" stroke-linejoin="miter" fill="none" stroke="#000000" d="M 26.4025 89.5646 C 26.4025 87.3439 27.987 87.4823 29.8346 86.8898 C 35.0334 85.2231 34.0656 84.7315 41.061 87.7972 C 44.1312 89.1425 44.4694 89.875 46.0791 92.2796 C 43.0526 96.8006 36.1548 97.1396 31.0691 94.3985 C 29.4795 93.5416 26.4025 91.4604 26.4025 89.5646 Z "/>
<path transform="matrix(2.7777777,0,0,-2.7777777,0,629.9214)" d="M 187.2096 41.3765 C 189.7549 46.1877 189.2452 45.5207 189.2452 51.5571 C 189.2452 53.3307 185.3376 60.9494 180.4246 61.0591 C 179.1332 55.514 177.4054 55.5338 179.7202 49.4991 C 181.1594 45.7475 183.1499 42.4607 187.2096 41.3765 Z " fill="#e3e3e3" fill-rule="evenodd"/>
<path transform="matrix(2.7777777,0,0,-2.7777777,0,629.9214)" stroke-width=".5669" stroke-linecap="butt" stroke-miterlimit="22.925585" stroke-linejoin="miter" fill="none" stroke="#000000" d="M 187.2096 41.3765 C 189.7549 46.1877 189.2452 45.5207 189.2452 51.5571 C 189.2452 53.3307 185.3376 60.9494 180.4246 61.0591 C 179.1332 55.514 177.4054 55.5338 179.7202 49.4991 C 181.1594 45.7475 183.1499 42.4607 187.2096 41.3765 Z "/>
<path transform="matrix(2.7777777,0,0,-2.7777777,0,629.9214)" d="M 29.1163 146.5764 C 29.1163 140.4224 33.1498 135.254 38.1158 133.1487 C 40.8974 131.9698 40.8118 131.7827 43.365 132.3235 C 43.365 137.8344 43.0376 139.8433 40.4782 143.0099 C 36.3132 148.1618 29.1163 149.1746 29.1163 146.5764 Z " fill="#e0e1e0" fill-rule="evenodd"/>
<path transform="matrix(2.7777777,0,0,-2.7777777,0,629.9214)" stroke-width=".5669" stroke-linecap="butt" stroke-miterlimit="22.925585" stroke-linejoin="miter" fill="none" stroke="#000000" d="M 29.1163 146.5764 C 29.1163 140.4224 33.1498 135.254 38.1158 133.1487 C 40.8974 131.9698 40.8118 131.7827 43.365 132.3235 C 43.365 137.8344 43.0376 139.8433 40.4782 143.0099 C 36.3132 148.1618 29.1163 149.1746 29.1163 146.5764 Z "/>
<path transform="matrix(2.7777777,0,0,-2.7777777,0,629.9214)" d="M 154.6413 133.0021 C 154.6413 130.9799 158.362 126.6871 161.6907 125.1224 C 166.5581 122.8343 161.9345 123.5004 170.2471 123.5004 C 174.9736 123.5004 170.7381 131.813 163.6705 134.5683 C 159.6623 136.1305 165.6539 135.7172 154.6413 135.7172 Z " fill="#e5e5e4" fill-rule="evenodd"/>
<path transform="matrix(2.7777777,0,0,-2.7777777,0,629.9214)" stroke-width=".5669" stroke-linecap="butt" stroke-miterlimit="22.925585" stroke-linejoin="miter" fill="none" stroke="#000000" d="M 154.6413 133.0021 C 154.6413 130.9799 158.362 126.6871 161.6907 125.1224 C 166.5581 122.8343 161.9345 123.5004 170.2471 123.5004 C 174.9736 123.5004 170.7381 131.813 163.6705 134.5683 C 159.6623 136.1305 165.6539 135.7172 154.6413 135.7172 Z "/>
<path transform="matrix(2.7777777,0,0,-2.7777777,0,629.9214)" d="M 56.2569 123.5004 L 61.0064 123.5004 C 63.2716 123.5004 60.5735 123.1294 64.813 125.1224 C 65.795 125.5839 65.7768 125.5187 66.5997 126.0502 C 70.3981 128.5041 64.175 124.0387 67.3906 126.6163 C 69.9432 128.6623 71.8625 131.4054 71.8625 135.7172 C 66.206 135.7172 62.1797 135.9201 57.7573 131.5012 C 56.7241 130.4685 51.3816 123.5004 56.2569 123.5004 Z " fill="#e3e3e3" fill-rule="evenodd"/>
<path transform="matrix(2.7777777,0,0,-2.7777777,0,629.9214)" stroke-width=".5669" stroke-linecap="butt" stroke-miterlimit="22.925585" stroke-linejoin="miter" fill="none" stroke="#000000" d="M 56.2569 123.5004 L 61.0064 123.5004 C 63.2716 123.5004 60.5735 123.1294 64.813 125.1224 C 65.795 125.5839 65.7768 125.5187 66.5997 126.0502 C 70.3981 128.5041 64.175 124.0387 67.3906 126.6163 C 69.9432 128.6623 71.8625 131.4054 71.8625 135.7172 C 66.206 135.7172 62.1797 135.9201 57.7573 131.5012 C 56.7241 130.4685 51.3816 123.5004 56.2569 123.5004 Z "/>
<path transform="matrix(2.7777777,0,0,-2.7777777,0,629.9214)" d="M 24.3666 133.681 C 24.3666 130.8725 24.5381 129.8441 26.2318 127.4023 C 26.314 127.2841 26.4263 127.1183 26.5124 127.004 C 30.4089 121.828 41.3297 119.05 41.3297 123.5004 C 41.3297 126.3169 41.021 126.4014 38.3335 129.3265 L 36.557 130.9431 C 33.0701 133.414 28.6722 135.3526 24.3666 133.681 Z " fill="#e1e2e1" fill-rule="evenodd"/>
<path transform="matrix(2.7777777,0,0,-2.7777777,0,629.9214)" stroke-width=".5669" stroke-linecap="butt" stroke-miterlimit="22.925585" stroke-linejoin="miter" fill="none" stroke="#000000" d="M 24.3666 133.681 C 24.3666 130.8725 24.5381 129.8441 26.2318 127.4023 C 26.314 127.2841 26.4263 127.1183 26.5124 127.004 C 30.4089 121.828 41.3297 119.05 41.3297 123.5004 C 41.3297 126.3169 41.021 126.4014 38.3335 129.3265 L 36.557 130.9431 C 33.0701 133.414 28.6722 135.3526 24.3666 133.681 Z "/>
<path transform="matrix(2.7777777,0,0,-2.7777777,0,629.9214)" d="M 65.0775 52.9146 C 65.0775 49.9198 66.0804 48.0796 67.1131 46.1273 C 70.126 46.3782 71.6803 47.6646 73.1106 49.6301 C 79.1742 57.9634 75.7559 72.8756 68.0017 60.1702 C 67.621 59.5463 67.2075 58.5927 66.9042 57.8747 C 66.4974 56.912 65.0775 53.5493 65.0775 52.9146 Z " fill="#e1e2e1" fill-rule="evenodd"/>
<path transform="matrix(2.7777777,0,0,-2.7777777,0,629.9214)" stroke-width=".5669" stroke-linecap="butt" stroke-miterlimit="22.925585" stroke-linejoin="miter" fill="none" stroke="#000000" d="M 65.0775 52.9146 C 65.0775 49.9198 66.0804 48.0796 67.1131 46.1273 C 70.126 46.3782 71.6803 47.6646 73.1106 49.6301 C 79.1742 57.9634 75.7559 72.8756 68.0017 60.1702 C 67.621 59.5463 67.2075 58.5927 66.9042 57.8747 C 66.4974 56.912 65.0775 53.5493 65.0775 52.9146 Z "/>
<path transform="matrix(2.7777777,0,0,-2.7777777,0,629.9214)" d="M 185.1744 124.8576 C 185.1744 121.2369 185.1829 121.464 189.2452 121.464 C 202.4487 121.464 208.6401 142.3344 190.3538 131.2146 C 188.5737 130.1321 188.7551 130.3118 187.4608 128.6787 C 186.607 127.6019 185.1744 125.9864 185.1744 124.8576 Z " fill="#e1e2e1" fill-rule="evenodd"/>
<path transform="matrix(2.7777777,0,0,-2.7777777,0,629.9214)" stroke-width=".5669" stroke-linecap="butt" stroke-miterlimit="22.925585" stroke-linejoin="miter" fill="none" stroke="#000000" d="M 185.1744 124.8576 C 185.1744 121.2369 185.1829 121.464 189.2452 121.464 C 202.4487 121.464 208.6401 142.3344 190.3538 131.2146 C 188.5737 130.1321 188.7551 130.3118 187.4608 128.6787 C 186.607 127.6019 185.1744 125.9864 185.1744 124.8576 Z "/>
<path transform="matrix(2.7777777,0,0,-2.7777777,0,629.9214)" d="M 168.2113 101.1027 C 168.2887 97.6334 167.8703 98.5901 170.5618 97.3454 C 176.0649 94.7999 177.6804 95.1508 183.4892 98.0376 C 185.7696 99.1709 187.2422 100.0406 187.8883 102.4603 C 186.8434 104.021 186.7518 104.3904 185.0165 105.0174 C 175.8611 108.3234 170.6553 101.7556 168.2113 101.1027 Z " fill="#e5e5e5" fill-rule="evenodd"/>
<path transform="matrix(2.7777777,0,0,-2.7777777,0,629.9214)" stroke-width=".5669" stroke-linecap="butt" stroke-miterlimit="22.925585" stroke-linejoin="miter" fill="none" stroke="#000000" d="M 168.2113 101.1027 C 168.2887 97.6334 167.8703 98.5901 170.5618 97.3454 C 176.0649 94.7999 177.6804 95.1508 183.4892 98.0376 C 185.7696 99.1709 187.2422 100.0406 187.8883 102.4603 C 186.8434 104.021 186.7518 104.3904 185.0165 105.0174 C 175.8611 108.3234 170.6553 101.7556 168.2113 101.1027 Z "/>
<path transform="matrix(2.7777777,0,0,-2.7777777,0,629.9214)" d="M 183.8171 69.2033 C 183.8171 66.6414 185.0941 62.3265 186.1132 60.6407 C 187.9727 57.5643 190.4536 57.0308 191.9594 56.308 C 195.2827 62.5907 194.6874 68.6826 190.0687 74.0993 C 186.3315 78.4823 185.3101 75.1864 184.2968 71.4387 C 184.1454 70.88 183.8171 71.1014 183.8171 69.2033 Z " fill="#dedede" fill-rule="evenodd"/>
<path transform="matrix(2.7777777,0,0,-2.7777777,0,629.9214)" stroke-width=".5669" stroke-linecap="butt" stroke-miterlimit="22.925585" stroke-linejoin="miter" fill="none" stroke="#000000" d="M 183.8171 69.2033 C 183.8171 66.6414 185.0941 62.3265 186.1132 60.6407 C 187.9727 57.5643 190.4536 57.0308 191.9594 56.308 C 195.2827 62.5907 194.6874 68.6826 190.0687 74.0993 C 186.3315 78.4823 185.3101 75.1864 184.2968 71.4387 C 184.1454 70.88 183.8171 71.1014 183.8171 69.2033 Z "/>
<path transform="matrix(2.7777777,0,0,-2.7777777,0,629.9214)" d="M 31.1519 160.1507 C 31.1519 155.8003 32.8382 152.2534 35.0376 149.7847 C 36.5227 148.1179 47.1634 139.7081 44.6505 151.2198 C 44.2358 153.1196 43.2777 154.6174 42.1722 156.2423 C 39.3721 160.3579 31.1519 163.3527 31.1519 160.1507 Z " fill="#e1e2e1" fill-rule="evenodd"/>
<path transform="matrix(2.7777777,0,0,-2.7777777,0,629.9214)" stroke-width=".5669" stroke-linecap="butt" stroke-miterlimit="22.925585" stroke-linejoin="miter" fill="none" stroke="#000000" d="M 31.1519 160.1507 C 31.1519 155.8003 32.8382 152.2534 35.0376 149.7847 C 36.5227 148.1179 47.1634 139.7081 44.6505 151.2198 C 44.2358 153.1196 43.2777 154.6174 42.1722 156.2423 C 39.3721 160.3579 31.1519 163.3527 31.1519 160.1507 Z "/>
<path transform="matrix(2.7777777,0,0,-2.7777777,0,629.9214)" d="M 38.6155 102.4603 C 39.4625 99.2869 41.6903 98.5932 44.3509 97.338 C 48.7811 95.2486 50.3957 94.9334 54.9604 96.9701 C 56.7054 97.7491 57.2051 97.5824 58.2922 99.0669 C 56.7094 104.9967 43.1872 109.2898 38.6155 102.4603 Z " fill="#e5e5e4" fill-rule="evenodd"/>
<path transform="matrix(2.7777777,0,0,-2.7777777,0,629.9214)" stroke-width=".5669" stroke-linecap="butt" stroke-miterlimit="22.925585" stroke-linejoin="miter" fill="none" stroke="#000000" d="M 38.6155 102.4603 C 39.4625 99.2869 41.6903 98.5932 44.3509 97.338 C 48.7811 95.2486 50.3957 94.9334 54.9604 96.9701 C 56.7054 97.7491 57.2051 97.5824 58.2922 99.0669 C 56.7094 104.9967 43.1872 109.2898 38.6155 102.4603 Z "/>
<path transform="matrix(2.7777777,0,0,-2.7777777,0,629.9214)" d="M 108.5023 186.6203 C 108.5023 172.2835 117.3229 175.3719 117.3229 182.5481 C 117.3229 189.1568 118.1276 190.2101 115.8219 193.9419 C 113.4244 197.8217 111.6442 196.4832 109.8632 192.7247 C 109.1931 191.3102 108.5023 188.75 108.5023 186.6203 Z " fill="#dadada" fill-rule="evenodd"/>
<path transform="matrix(2.7777777,0,0,-2.7777777,0,629.9214)" stroke-width=".5669" stroke-linecap="butt" stroke-miterlimit="22.925585" stroke-linejoin="miter" fill="none" stroke="#000000" d="M 108.5023 186.6203 C 108.5023 172.2835 117.3229 175.3719 117.3229 182.5481 C 117.3229 189.1568 118.1276 190.2101 115.8219 193.9419 C 113.4244 197.8217 111.6442 196.4832 109.8632 192.7247 C 109.1931 191.3102 108.5023 188.75 108.5023 186.6203 Z "/>
<path transform="matrix(2.7777777,0,0,-2.7777777,0,629.9214)" d="M 32.5089 185.9414 C 32.5089 172.7649 50.1508 164.2524 44.3653 180.1545 C 42.6155 184.9635 32.5089 192.6924 32.5089 185.9414 Z " fill="#d6d7d7" fill-rule="evenodd"/>
<path transform="matrix(2.7777777,0,0,-2.7777777,0,629.9214)" stroke-width=".5669" stroke-linecap="butt" stroke-miterlimit="22.925585" stroke-linejoin="miter" fill="none" stroke="#000000" d="M 32.5089 185.9414 C 32.5089 172.7649 50.1508 164.2524 44.3653 180.1545 C 42.6155 184.9635 32.5089 192.6924 32.5089 185.9414 Z "/>
<path transform="matrix(2.7777777,0,0,-2.7777777,0,629.9214)" d="M 155.9982 153.3637 C 155.9982 145.0964 168.8899 134.6383 168.8899 141.1466 C 168.8899 145.9463 169.4477 148.8436 165.0152 152.8812 C 163.0117 154.7065 160.3094 156.0784 156.6768 156.0784 C 156.2411 154.2583 155.9982 154.7989 155.9982 153.3637 Z " fill="#e0e1e0" fill-rule="evenodd"/>
<path transform="matrix(2.7777777,0,0,-2.7777777,0,629.9214)" stroke-width=".5669" stroke-linecap="butt" stroke-miterlimit="22.925585" stroke-linejoin="miter" fill="none" stroke="#000000" d="M 155.9982 153.3637 C 155.9982 145.0964 168.8899 134.6383 168.8899 141.1466 C 168.8899 145.9463 169.4477 148.8436 165.0152 152.8812 C 163.0117 154.7065 160.3094 156.0784 156.6768 156.0784 C 156.2411 154.2583 155.9982 154.7989 155.9982 153.3637 Z "/>
<path transform="matrix(2.7777777,0,0,-2.7777777,0,629.9214)" d="M 196.0305 63.7739 L 196.0305 59.7016 C 196.0305 52.2856 206.208 44.5717 206.208 56.9869 C 206.208 59.6761 203.5984 67.9071 198.7444 69.2033 C 197.2375 68.099 196.0305 66.3454 196.0305 63.7739 Z " fill="#e3e3e3" fill-rule="evenodd"/>
<path transform="matrix(2.7777777,0,0,-2.7777777,0,629.9214)" stroke-width=".5669" stroke-linecap="butt" stroke-miterlimit="22.925585" stroke-linejoin="miter" fill="none" stroke="#000000" d="M 196.0305 63.7739 L 196.0305 59.7016 C 196.0305 52.2856 206.208 44.5717 206.208 56.9869 C 206.208 59.6761 203.5984 67.9071 198.7444 69.2033 C 197.2375 68.099 196.0305 66.3454 196.0305 63.7739 Z "/>
<path transform="matrix(2.7777777,0,0,-2.7777777,0,629.9214)" d="M 60.3281 63.7739 C 64.8709 63.7739 67.4887 63.9816 71.32 67.0314 C 74.0092 69.1719 78.6986 75.9906 73.8981 75.9906 C 68.8039 75.9906 65.3063 75.5515 61.5594 71.365 C 60.7907 70.5059 59.8195 68.7813 59.1973 67.5023 C 58.4167 65.8987 57.259 63.7739 60.3281 63.7739 Z " fill="#e1e2e1" fill-rule="evenodd"/>
<path transform="matrix(2.7777777,0,0,-2.7777777,0,629.9214)" stroke-width=".5669" stroke-linecap="butt" stroke-miterlimit="22.925585" stroke-linejoin="miter" fill="none" stroke="#000000" d="M 60.3281 63.7739 C 64.8709 63.7739 67.4887 63.9816 71.32 67.0314 C 74.0092 69.1719 78.6986 75.9906 73.8981 75.9906 C 68.8039 75.9906 65.3063 75.5515 61.5594 71.365 C 60.7907 70.5059 59.8195 68.7813 59.1973 67.5023 C 58.4167 65.8987 57.259 63.7739 60.3281 63.7739 Z "/>
<path transform="matrix(2.7777777,0,0,-2.7777777,0,629.9214)" d="M 8.7608 147.2553 C 8.9073 140.6843 14.7362 137.2272 20.8083 136.1616 C 33.1364 133.998 21.9526 147.9336 14.8674 147.9336 C 12.6235 147.9336 10.8941 148.0833 8.7608 147.2553 Z " fill="#e1e2e1" fill-rule="evenodd"/>
<path transform="matrix(2.7777777,0,0,-2.7777777,0,629.9214)" stroke-width=".5669" stroke-linecap="butt" stroke-miterlimit="22.925585" stroke-linejoin="miter" fill="none" stroke="#000000" d="M 8.7608 147.2553 C 8.9073 140.6843 14.7362 137.2272 20.8083 136.1616 C 33.1364 133.998 21.9526 147.9336 14.8674 147.9336 C 12.6235 147.9336 10.8941 148.0833 8.7608 147.2553 Z "/>
<path transform="matrix(2.7777777,0,0,-2.7777777,0,629.9214)" d="M 184.4957 132.3235 C 189.5275 132.3235 196.7088 137.732 196.7088 144.5403 L 196.7088 147.9336 C 192.8923 147.9336 192.5379 148.0175 189.4147 145.7283 C 181.2402 139.7367 181.6512 132.3235 184.4957 132.3235 Z " fill="#e1e2e1" fill-rule="evenodd"/>
<path transform="matrix(2.7777777,0,0,-2.7777777,0,629.9214)" stroke-width=".5669" stroke-linecap="butt" stroke-miterlimit="22.925585" stroke-linejoin="miter" fill="none" stroke="#000000" d="M 184.4957 132.3235 C 189.5275 132.3235 196.7088 137.732 196.7088 144.5403 L 196.7088 147.9336 C 192.8923 147.9336 192.5379 148.0175 189.4147 145.7283 C 181.2402 139.7367 181.6512 132.3235 184.4957 132.3235 Z "/>
<path transform="matrix(2.7777777,0,0,-2.7777777,0,629.9214)" d="M 133.6073 199.5157 C 133.6073 191.5461 139.7387 185.9414 147.856 185.9414 C 147.856 192.1717 146.1555 197.0561 140.0278 199.8298 C 137.9602 200.7658 133.6073 203.3748 133.6073 199.5157 Z " fill="#dadada" fill-rule="evenodd"/>
<path transform="matrix(2.7777777,0,0,-2.7777777,0,629.9214)" stroke-width=".5669" stroke-linecap="butt" stroke-miterlimit="22.925585" stroke-linejoin="miter" fill="none" stroke="#000000" d="M 133.6073 199.5157 C 133.6073 191.5461 139.7387 185.9414 147.856 185.9414 C 147.856 192.1717 146.1555 197.0561 140.0278 199.8298 C 137.9602 200.7658 133.6073 203.3748 133.6073 199.5157 Z "/>
<path transform="matrix(2.7777777,0,0,-2.7777777,0,629.9214)" d="M 15.546 164.2229 C 15.546 157.3121 15.9046 153.303 21.3625 149.0009 C 23.2328 147.5269 23.9831 147.2553 27.0808 147.2553 C 27.8549 150.5789 28.4185 151.9129 26.4161 156.092 C 24.6705 159.7351 23.7478 161.2582 20.317 163.6138 C 18.6993 164.7247 17.8447 165.1153 15.546 164.2229 Z " fill="#e0e1e0" fill-rule="evenodd"/>
<path transform="matrix(2.7777777,0,0,-2.7777777,0,629.9214)" stroke-width=".5669" stroke-linecap="butt" stroke-miterlimit="22.925585" stroke-linejoin="miter" fill="none" stroke="#000000" d="M 15.546 164.2229 C 15.546 157.3121 15.9046 153.303 21.3625 149.0009 C 23.2328 147.5269 23.9831 147.2553 27.0808 147.2553 C 27.8549 150.5789 28.4185 151.9129 26.4161 156.092 C 24.6705 159.7351 23.7478 161.2582 20.317 163.6138 C 18.6993 164.7247 17.8447 165.1153 15.546 164.2229 Z "/>
<path transform="matrix(2.7777777,0,0,-2.7777777,0,629.9214)" d="M 44.0436 183.9056 C 50.9227 183.9056 53.5428 193.0496 53.5428 196.122 C 53.5428 200.1866 52.2371 200.1753 51.5072 202.9093 C 45.8597 202.4391 42.7683 193.934 42.8338 190.0108 C 42.872 187.7136 43.9699 187.2179 44.0436 183.9056 Z " fill="#d5d4d4" fill-rule="evenodd"/>
<path transform="matrix(2.7777777,0,0,-2.7777777,0,629.9214)" stroke-width=".5669" stroke-linecap="butt" stroke-miterlimit="22.925585" stroke-linejoin="miter" fill="none" stroke="#000000" d="M 44.0436 183.9056 C 50.9227 183.9056 53.5428 193.0496 53.5428 196.122 C 53.5428 200.1866 52.2371 200.1753 51.5072 202.9093 C 45.8597 202.4391 42.7683 193.934 42.8338 190.0108 C 42.872 187.7136 43.9699 187.2179 44.0436 183.9056 Z "/>
<path transform="matrix(2.7777777,0,0,-2.7777777,0,629.9214)" d="M 162.1046 182.5481 L 162.1046 189.3351 C 162.1046 193.6667 157.3826 199.1747 153.284 199.5157 C 147.0858 186.5942 162.1046 176.1823 162.1046 182.5481 Z " fill="#dadada" fill-rule="evenodd"/>
<path transform="matrix(2.7777777,0,0,-2.7777777,0,629.9214)" stroke-width=".5669" stroke-linecap="butt" stroke-miterlimit="22.925585" stroke-linejoin="miter" fill="none" stroke="#000000" d="M 162.1046 182.5481 L 162.1046 189.3351 C 162.1046 193.6667 157.3826 199.1747 153.284 199.5157 C 147.0858 186.5942 162.1046 176.1823 162.1046 182.5481 Z "/>
<path transform="matrix(2.7777777,0,0,-2.7777777,0,629.9214)" d="M 173.6396 44.7698 C 179.7902 44.7698 174.3466 55.7983 169.8177 58.5938 C 159.7082 64.8334 161.4302 56.3323 164.5685 51.3065 C 166.4799 48.2451 171.3736 44.7698 173.6396 44.7698 Z " fill="#e5e5e5" fill-rule="evenodd"/>
<path transform="matrix(2.7777777,0,0,-2.7777777,0,629.9214)" stroke-width=".5669" stroke-linecap="butt" stroke-miterlimit="22.925585" stroke-linejoin="miter" fill="none" stroke="#000000" d="M 173.6396 44.7698 C 179.7902 44.7698 174.3466 55.7983 169.8177 58.5938 C 159.7082 64.8334 161.4302 56.3323 164.5685 51.3065 C 166.4799 48.2451 171.3736 44.7698 173.6396 44.7698 Z "/>
<path transform="matrix(2.7777777,0,0,-2.7777777,0,629.9214)" d="M 37.2586 50.8785 C 37.2586 47.9183 36.9255 39.7562 41.5278 42.4843 C 47.3051 45.9091 48.9892 55.6988 45.4008 61.0591 C 42.6146 60.8272 41.5826 59.2654 40.1496 57.4883 C 39.0453 56.1183 37.2586 53.0444 37.2586 50.8785 Z " fill="#e5e5e4" fill-rule="evenodd"/>
<path transform="matrix(2.7777777,0,0,-2.7777777,0,629.9214)" stroke-width=".5669" stroke-linecap="butt" stroke-miterlimit="22.925585" stroke-linejoin="miter" fill="none" stroke="#000000" d="M 37.2586 50.8785 C 37.2586 47.9183 36.9255 39.7562 41.5278 42.4843 C 47.3051 45.9091 48.9892 55.6988 45.4008 61.0591 C 42.6146 60.8272 41.5826 59.2654 40.1496 57.4883 C 39.0453 56.1183 37.2586 53.0444 37.2586 50.8785 Z "/>
<path transform="matrix(2.7777777,0,0,-2.7777777,0,629.9214)" d="M 150.5701 74.6334 C 150.5701 65.3686 167.5329 61.1986 167.5329 65.1311 C 167.5329 68.5378 165.854 70.501 163.7728 72.2293 C 158.7291 76.4167 159.0279 75.9906 152.6054 75.9906 C 151.4951 75.9906 150.5701 75.5844 150.5701 74.6334 Z " fill="#e3e3e3" fill-rule="evenodd"/>
<path transform="matrix(2.7777777,0,0,-2.7777777,0,629.9214)" stroke-width=".5669" stroke-linecap="butt" stroke-miterlimit="22.925585" stroke-linejoin="miter" fill="none" stroke="#000000" d="M 150.5701 74.6334 C 150.5701 65.3686 167.5329 61.1986 167.5329 65.1311 C 167.5329 68.5378 165.854 70.501 163.7728 72.2293 C 158.7291 76.4167 159.0279 75.9906 152.6054 75.9906 C 151.4951 75.9906 150.5701 75.5844 150.5701 74.6334 Z "/>
<path transform="matrix(2.7777777,0,0,-2.7777777,0,629.9214)" d="M 78.6478 190.6926 L 78.6478 185.9414 C 81.2608 185.9414 82.2951 186.2184 84.3715 187.0033 C 86.3683 187.7581 85.2165 187.1631 86.6701 188.0974 C 86.7728 188.1635 87.5503 188.7537 87.8176 188.9858 C 88.0792 189.2126 88.797 189.9403 88.846 189.9933 C 91.4749 192.835 92.8964 195.4341 92.8964 200.8732 C 89.6743 201.6241 86.5848 200.4094 83.8488 198.3855 C 81.4272 196.5943 78.6478 191.8261 78.6478 190.6926 Z " fill="#dadada" fill-rule="evenodd"/>
<path transform="matrix(2.7777777,0,0,-2.7777777,0,629.9214)" stroke-width=".5669" stroke-linecap="butt" stroke-miterlimit="22.925585" stroke-linejoin="miter" fill="none" stroke="#000000" d="M 78.6478 190.6926 L 78.6478 185.9414 C 81.2608 185.9414 82.2951 186.2184 84.3715 187.0033 C 86.3683 187.7581 85.2165 187.1631 86.6701 188.0974 C 86.7728 188.1635 87.5503 188.7537 87.8176 188.9858 C 88.0792 189.2126 88.797 189.9403 88.846 189.9933 C 91.4749 192.835 92.8964 195.4341 92.8964 200.8732 C 89.6743 201.6241 86.5848 200.4094 83.8488 198.3855 C 81.4272 196.5943 78.6478 191.8261 78.6478 190.6926 Z "/>
<path transform="matrix(2.7777777,0,0,-2.7777777,0,629.9214)" d="M 125.4651 166.9377 C 126.3419 166.517 129.8305 165.4951 131.1968 165.3562 C 132.6512 165.2085 134.9206 165.7749 136.9726 166.2772 C 140.5973 167.1647 143.312 170.3123 145.1421 173.046 C 140.9774 177.8389 133.9265 176.0207 129.7029 172.8794 C 127.1959 171.0147 126.2599 170.3509 125.4651 166.9377 Z " fill="#dddddd" fill-rule="evenodd"/>
<path transform="matrix(2.7777777,0,0,-2.7777777,0,629.9214)" stroke-width=".5669" stroke-linecap="butt" stroke-miterlimit="22.925585" stroke-linejoin="miter" fill="none" stroke="#000000" d="M 125.4651 166.9377 C 126.3419 166.517 129.8305 165.4951 131.1968 165.3562 C 132.6512 165.2085 134.9206 165.7749 136.9726 166.2772 C 140.5973 167.1647 143.312 170.3123 145.1421 173.046 C 140.9774 177.8389 133.9265 176.0207 129.7029 172.8794 C 127.1959 171.0147 126.2599 170.3509 125.4651 166.9377 Z "/>
<path transform="matrix(2.7777777,0,0,-2.7777777,0,629.9214)" d="M 63.7206 185.9414 C 63.7206 183.9606 64.6328 182.4222 65.0775 180.5119 C 71.6491 181.059 77.1951 191.228 73.2195 199.5157 C 70.473 199.2872 69.6552 198.2716 68.0791 196.5132 C 65.9591 194.1489 65.3771 193.7917 64.6594 191.111 C 64.3799 190.0675 63.7206 186.6906 63.7206 185.9414 Z " fill="#d7d7d7" fill-rule="evenodd"/>
<path transform="matrix(2.7777777,0,0,-2.7777777,0,629.9214)" stroke-width=".5669" stroke-linecap="butt" stroke-miterlimit="22.925585" stroke-linejoin="miter" fill="none" stroke="#000000" d="M 63.7206 185.9414 C 63.7206 183.9606 64.6328 182.4222 65.0775 180.5119 C 71.6491 181.059 77.1951 191.228 73.2195 199.5157 C 70.473 199.2872 69.6552 198.2716 68.0791 196.5132 C 65.9591 194.1489 65.3771 193.7917 64.6594 191.111 C 64.3799 190.0675 63.7206 186.6906 63.7206 185.9414 Z "/>
<path transform="matrix(2.7777777,0,0,-2.7777777,0,629.9214)" d="M 32.5089 65.81 C 32.5089 62.6516 32.3989 55.7348 36.2446 56.9129 C 37.3153 57.2414 37.006 57.1484 37.6954 57.8064 C 42.0381 61.9506 42.008 64.5075 42.008 70.5609 C 42.008 82.872 32.5089 71.3818 32.5089 65.81 Z " fill="#e1e2e1" fill-rule="evenodd"/>
<path transform="matrix(2.7777777,0,0,-2.7777777,0,629.9214)" stroke-width=".5669" stroke-linecap="butt" stroke-miterlimit="22.925585" stroke-linejoin="miter" fill="none" stroke="#000000" d="M 32.5089 65.81 C 32.5089 62.6516 32.3989 55.7348 36.2446 56.9129 C 37.3153 57.2414 37.006 57.1484 37.6954 57.8064 C 42.0381 61.9506 42.008 64.5075 42.008 70.5609 C 42.008 82.872 32.5089 71.3818 32.5089 65.81 Z "/>
<path transform="matrix(2.7777777,0,0,-2.7777777,0,629.9214)" d="M 49.4717 178.4758 C 49.4717 175.1457 50.6384 172.5775 52.1858 169.6524 C 55.4196 171.3643 57.9033 173.5515 58.8056 177.2926 C 60.2291 183.1935 58.7353 184.0102 58.2922 189.3351 C 53.7347 189.3351 52.0923 186.7663 50.6336 182.7434 C 50.1732 181.474 49.4717 180.2134 49.4717 178.4758 Z " fill="#d6d7d7" fill-rule="evenodd"/>
<path transform="matrix(2.7777777,0,0,-2.7777777,0,629.9214)" stroke-width=".5669" stroke-linecap="butt" stroke-miterlimit="22.925585" stroke-linejoin="miter" fill="none" stroke="#000000" d="M 49.4717 178.4758 C 49.4717 175.1457 50.6384 172.5775 52.1858 169.6524 C 55.4196 171.3643 57.9033 173.5515 58.8056 177.2926 C 60.2291 183.1935 58.7353 184.0102 58.2922 189.3351 C 53.7347 189.3351 52.0923 186.7663 50.6336 182.7434 C 50.1732 181.474 49.4717 180.2134 49.4717 178.4758 Z "/>
<path transform="matrix(2.7777777,0,0,-2.7777777,0,629.9214)" d="M 150.5701 61.0591 C 150.5701 54.6616 150.1804 53.0484 154.7722 48.2743 C 155.9599 47.0392 156.9101 45.4368 158.8932 46.5216 C 160.8823 47.6096 159.518 46.1812 160.2777 48.6111 C 161.9728 54.0323 159.7 59.4907 155.988 63.085 C 154.6339 64.3963 154.3595 64.9287 151.9271 65.1311 C 151.2218 63.7977 150.5701 63.1298 150.5701 61.0591 Z " fill="#e3e3e3" fill-rule="evenodd"/>
<path transform="matrix(2.7777777,0,0,-2.7777777,0,629.9214)" stroke-width=".5669" stroke-linecap="butt" stroke-miterlimit="22.925585" stroke-linejoin="miter" fill="none" stroke="#000000" d="M 150.5701 61.0591 C 150.5701 54.6616 150.1804 53.0484 154.7722 48.2743 C 155.9599 47.0392 156.9101 45.4368 158.8932 46.5216 C 160.8823 47.6096 159.518 46.1812 160.2777 48.6111 C 161.9728 54.0323 159.7 59.4907 155.988 63.085 C 154.6339 64.3963 154.3595 64.9287 151.9271 65.1311 C 151.2218 63.7977 150.5701 63.1298 150.5701 61.0591 Z "/>
<path transform="matrix(2.7777777,0,0,-2.7777777,0,629.9214)" d="M 69.8272 170.3313 C 70.1223 157.068 97.0509 154.2441 83.4763 167.0168 C 80.1255 170.1697 74.3916 172.1035 69.8272 170.3313 Z " fill="#e0e1e0" fill-rule="evenodd"/>
<path transform="matrix(2.7777777,0,0,-2.7777777,0,629.9214)" stroke-width=".5669" stroke-linecap="butt" stroke-miterlimit="22.925585" stroke-linejoin="miter" fill="none" stroke="#000000" d="M 69.8272 170.3313 C 70.1223 157.068 97.0509 154.2441 83.4763 167.0168 C 80.1255 170.1697 74.3916 172.1035 69.8272 170.3313 Z "/>
<path transform="matrix(2.7777777,0,0,-2.7777777,0,629.9214)" d="M 202.8155 88.8863 C 202.8155 84.8166 204.7972 81.085 207.3898 78.5296 C 209.8502 76.1043 213.6875 74.5965 217.0641 75.312 C 217.0641 88.9492 202.8155 93.4435 202.8155 88.8863 Z " fill="#e1e2e1" fill-rule="evenodd"/>
<path transform="matrix(2.7777777,0,0,-2.7777777,0,629.9214)" stroke-width=".5669" stroke-linecap="butt" stroke-miterlimit="22.925585" stroke-linejoin="miter" fill="none" stroke="#000000" d="M 202.8155 88.8863 C 202.8155 84.8166 204.7972 81.085 207.3898 78.5296 C 209.8502 76.1043 213.6875 74.5965 217.0641 75.312 C 217.0641 88.9492 202.8155 93.4435 202.8155 88.8863 Z "/>
<path transform="matrix(2.7777777,0,0,-2.7777777,0,629.9214)" d="M 126.1437 188.6564 C 131.9312 188.6564 134.2857 187.8585 134.2857 190.6926 C 134.2857 192.7236 129.3551 200.4863 119.7309 199.7365 C 115.196 199.3833 114.6869 197.788 118.472 193.8832 C 120.0657 192.2394 124.2556 188.6564 126.1437 188.6564 Z " fill="#dddddd" fill-rule="evenodd"/>
<path transform="matrix(2.7777777,0,0,-2.7777777,0,629.9214)" stroke-width=".5669" stroke-linecap="butt" stroke-miterlimit="22.925585" stroke-linejoin="miter" fill="none" stroke="#000000" d="M 126.1437 188.6564 C 131.9312 188.6564 134.2857 187.8585 134.2857 190.6926 C 134.2857 192.7236 129.3551 200.4863 119.7309 199.7365 C 115.196 199.3833 114.6869 197.788 118.472 193.8832 C 120.0657 192.2394 124.2556 188.6564 126.1437 188.6564 Z "/>
<path transform="matrix(2.7777777,0,0,-2.7777777,0,629.9214)" d="M 170.9254 69.2033 C 170.9254 65.1319 172.2552 61.5115 175.6752 59.7016 C 182.4565 64.2438 180.8008 79.384 174.9966 79.384 C 171.9666 79.384 170.9254 72.5924 170.9254 69.2033 Z " fill="#e1e2e1" fill-rule="evenodd"/>
<path transform="matrix(2.7777777,0,0,-2.7777777,0,629.9214)" stroke-width=".5669" stroke-linecap="butt" stroke-miterlimit="22.925585" stroke-linejoin="miter" fill="none" stroke="#000000" d="M 170.9254 69.2033 C 170.9254 65.1319 172.2552 61.5115 175.6752 59.7016 C 182.4565 64.2438 180.8008 79.384 174.9966 79.384 C 171.9666 79.384 170.9254 72.5924 170.9254 69.2033 Z "/>
<path transform="matrix(2.7777777,0,0,-2.7777777,0,629.9214)" d="M 188.5669 80.7415 C 188.5669 78.5327 194.6696 71.2397 202.1369 71.2397 C 204.6923 71.2397 203.4201 71.6862 206.208 71.9184 C 206.208 78.4962 198.5312 82.7776 197.3874 82.7776 C 191.1708 82.7776 188.5669 83.6374 188.5669 80.7415 Z " fill="#e5e5e5" fill-rule="evenodd"/>
<path transform="matrix(2.7777777,0,0,-2.7777777,0,629.9214)" stroke-width=".5669" stroke-linecap="butt" stroke-miterlimit="22.925585" stroke-linejoin="miter" fill="none" stroke="#000000" d="M 188.5669 80.7415 C 188.5669 78.5327 194.6696 71.2397 202.1369 71.2397 C 204.6923 71.2397 203.4201 71.6862 206.208 71.9184 C 206.208 78.4962 198.5312 82.7776 197.3874 82.7776 C 191.1708 82.7776 188.5669 83.6374 188.5669 80.7415 Z "/>
<path transform="matrix(2.7777777,0,0,-2.7777777,0,629.9214)" d="M 46.0791 69.8822 C 46.0791 64.9001 48.5393 62.1077 50.1503 59.7016 C 57.6011 63.6454 57.6011 76.119 50.1503 80.0629 C 48.4435 77.5137 46.0791 74.8675 46.0791 69.8822 Z " fill="#e1e2e1" fill-rule="evenodd"/>
<path transform="matrix(2.7777777,0,0,-2.7777777,0,629.9214)" stroke-width=".5669" stroke-linecap="butt" stroke-miterlimit="22.925585" stroke-linejoin="miter" fill="none" stroke="#000000" d="M 46.0791 69.8822 C 46.0791 64.9001 48.5393 62.1077 50.1503 59.7016 C 57.6011 63.6454 57.6011 76.119 50.1503 80.0629 C 48.4435 77.5137 46.0791 74.8675 46.0791 69.8822 Z "/>
<path transform="matrix(2.7777777,0,0,-2.7777777,0,629.9214)" d="M 92.2181 190.6926 C 92.2181 187.0906 102.1348 187.3797 107.3282 193.225 C 114.0789 200.823 108.7308 199.5157 101.0387 199.5157 C 99.6707 199.5157 96.5429 196.9033 95.6582 196.0747 C 94.3804 194.8779 92.2181 192.551 92.2181 190.6926 Z " fill="#dddddd" fill-rule="evenodd"/>
<path transform="matrix(2.7777777,0,0,-2.7777777,0,629.9214)" stroke-width=".5669" stroke-linecap="butt" stroke-miterlimit="22.925585" stroke-linejoin="miter" fill="none" stroke="#000000" d="M 92.2181 190.6926 C 92.2181 187.0906 102.1348 187.3797 107.3282 193.225 C 114.0789 200.823 108.7308 199.5157 101.0387 199.5157 C 99.6707 199.5157 96.5429 196.9033 95.6582 196.0747 C 94.3804 194.8779 92.2181 192.551 92.2181 190.6926 Z "/>
<path transform="matrix(2.7777777,0,0,-2.7777777,0,629.9214)" d="M 202.8155 125.5365 C 203.754 125.0396 206.4419 123.5004 207.5652 123.5004 C 210.5527 123.5004 220.5697 126.881 221.1355 133.681 C 217.8323 135.2662 213.1339 135.1624 209.5651 133.7168 C 206.7849 132.5906 203.1097 129.0711 202.8155 125.5365 Z " fill="#e1e2e1" fill-rule="evenodd"/>
<path transform="matrix(2.7777777,0,0,-2.7777777,0,629.9214)" stroke-width=".5669" stroke-linecap="butt" stroke-miterlimit="22.925585" stroke-linejoin="miter" fill="none" stroke="#000000" d="M 202.8155 125.5365 C 203.754 125.0396 206.4419 123.5004 207.5652 123.5004 C 210.5527 123.5004 220.5697 126.881 221.1355 133.681 C 217.8323 135.2662 213.1339 135.1624 209.5651 133.7168 C 206.7849 132.5906 203.1097 129.0711 202.8155 125.5365 Z "/>
<path transform="matrix(2.7777777,0,0,-2.7777777,0,629.9214)" d="M 205.5297 109.9261 C 205.916 105.2821 207.1219 103.8234 210.3024 101.126 C 212.2418 99.4813 211.7112 99.5666 214.7156 98.7534 C 221.6721 96.8706 221.8139 97.2913 221.8139 101.1027 C 221.8139 103.5882 214.5779 113.4391 205.5297 109.9261 Z " fill="#e3e3e3" fill-rule="evenodd"/>
<path transform="matrix(2.7777777,0,0,-2.7777777,0,629.9214)" stroke-width=".5669" stroke-linecap="butt" stroke-miterlimit="22.925585" stroke-linejoin="miter" fill="none" stroke="#000000" d="M 205.5297 109.9261 C 205.916 105.2821 207.1219 103.8234 210.3024 101.126 C 212.2418 99.4813 211.7112 99.5666 214.7156 98.7534 C 221.6721 96.8706 221.8139 97.2913 221.8139 101.1027 C 221.8139 103.5882 214.5779 113.4391 205.5297 109.9261 Z "/>
<path transform="matrix(2.7777777,0,0,-2.7777777,0,629.9214)" d="M 52.1858 44.7698 C 56.0959 44.7698 63.7206 49.2891 63.7206 59.0227 C 63.7206 63.9777 52.4514 57.8801 50.868 50.8147 C 50.0482 47.1563 49.5068 44.7698 52.1858 44.7698 Z " fill="#e5e5e4" fill-rule="evenodd"/>
<path transform="matrix(2.7777777,0,0,-2.7777777,0,629.9214)" stroke-width=".5669" stroke-linecap="butt" stroke-miterlimit="22.925585" stroke-linejoin="miter" fill="none" stroke="#000000" d="M 52.1858 44.7698 C 56.0959 44.7698 63.7206 49.2891 63.7206 59.0227 C 63.7206 63.9777 52.4514 57.8801 50.868 50.8147 C 50.0482 47.1563 49.5068 44.7698 52.1858 44.7698 Z "/>
<path transform="matrix(2.7777777,0,0,-2.7777777,0,629.9214)" d="M 58.2922 139.1105 C 62.9592 140.1985 64.1239 141.4905 66.9342 144.7191 C 69.5945 147.7757 70.1671 151.7049 69.1486 156.0784 C 61.0016 155.8967 54.4844 146.3088 58.2922 139.1105 Z " fill="#e1e2e1" fill-rule="evenodd"/>
<path transform="matrix(2.7777777,0,0,-2.7777777,0,629.9214)" stroke-width=".5669" stroke-linecap="butt" stroke-miterlimit="22.925585" stroke-linejoin="miter" fill="none" stroke="#000000" d="M 58.2922 139.1105 C 62.9592 140.1985 64.1239 141.4905 66.9342 144.7191 C 69.5945 147.7757 70.1671 151.7049 69.1486 156.0784 C 61.0016 155.8967 54.4844 146.3088 58.2922 139.1105 Z "/>
<path transform="matrix(2.7777777,0,0,-2.7777777,0,629.9214)" d="M 166.8543 182.5481 C 166.8543 177.3085 168.8627 170.4679 174.9966 170.3313 C 176.5111 176.8346 178.221 189.3351 168.2113 189.3351 C 167.9468 186.1532 166.8543 185.9788 166.8543 182.5481 Z " fill="#dadada" fill-rule="evenodd"/>
<path transform="matrix(2.7777777,0,0,-2.7777777,0,629.9214)" stroke-width=".5669" stroke-linecap="butt" stroke-miterlimit="22.925585" stroke-linejoin="miter" fill="none" stroke="#000000" d="M 166.8543 182.5481 C 166.8543 177.3085 168.8627 170.4679 174.9966 170.3313 C 176.5111 176.8346 178.221 189.3351 168.2113 189.3351 C 167.9468 186.1532 166.8543 185.9788 166.8543 182.5481 Z "/>
<path transform="matrix(2.7777777,0,0,-2.7777777,0,629.9214)" d="M 2.6544 118.0706 C 3.3316 115.5331 3.4345 115.8426 7.0359 114.3091 C 9.7506 113.1531 5.8136 113.3198 15.546 113.3198 C 16.4395 113.3198 21.4087 115.6788 23.0097 118.0706 C 21.674 119.6076 20.9296 120.1924 18.6531 121.1803 C 12.9314 123.6631 5.3949 122.1644 2.6544 118.0706 Z " fill="#e9e9e9" fill-rule="evenodd"/>
<path transform="matrix(2.7777777,0,0,-2.7777777,0,629.9214)" stroke-width=".5669" stroke-linecap="butt" stroke-miterlimit="22.925585" stroke-linejoin="miter" fill="none" stroke="#000000" d="M 2.6544 118.0706 C 3.3316 115.5331 3.4345 115.8426 7.0359 114.3091 C 9.7506 113.1531 5.8136 113.3198 15.546 113.3198 C 16.4395 113.3198 21.4087 115.6788 23.0097 118.0706 C 21.674 119.6076 20.9296 120.1924 18.6531 121.1803 C 12.9314 123.6631 5.3949 122.1644 2.6544 118.0706 Z "/>
<path transform="matrix(2.7777777,0,0,-2.7777777,0,629.9214)" d="M 108.5023 212.4113 C 108.5023 208.9372 111.371 197.208 115.8219 204.4111 C 117.9876 207.9159 119.4925 220.3007 112.5734 221.9131 C 110.4741 220.3747 108.5023 215.8954 108.5023 212.4113 Z " fill="#dddddd" fill-rule="evenodd"/>
<path transform="matrix(2.7777777,0,0,-2.7777777,0,629.9214)" stroke-width=".5669" stroke-linecap="butt" stroke-miterlimit="22.925585" stroke-linejoin="miter" fill="none" stroke="#000000" d="M 108.5023 212.4113 C 108.5023 208.9372 111.371 197.208 115.8219 204.4111 C 117.9876 207.9159 119.4925 220.3007 112.5734 221.9131 C 110.4741 220.3747 108.5023 215.8954 108.5023 212.4113 Z "/>
<path transform="matrix(2.7777777,0,0,-2.7777777,0,629.9214)" d="M 192.6377 105.1753 C 192.6377 102.5172 197.3869 93.6371 208.2436 93.6371 C 208.2436 97.9274 208.4882 100.266 203.9023 104.226 C 200.4117 107.2403 192.6377 109.023 192.6377 105.1753 Z " fill="#e3e3e3" fill-rule="evenodd"/>
<path transform="matrix(2.7777777,0,0,-2.7777777,0,629.9214)" stroke-width=".5669" stroke-linecap="butt" stroke-miterlimit="22.925585" stroke-linejoin="miter" fill="none" stroke="#000000" d="M 192.6377 105.1753 C 192.6377 102.5172 197.3869 93.6371 208.2436 93.6371 C 208.2436 97.9274 208.4882 100.266 203.9023 104.226 C 200.4117 107.2403 192.6377 109.023 192.6377 105.1753 Z "/>
<path transform="matrix(2.7777777,0,0,-2.7777777,0,629.9214)" d="M 172.961 196.122 C 172.961 192.9356 175.3773 183.9056 182.4602 183.9056 C 183.1411 188.5419 183.6306 189.1199 182.8018 193.7489 C 182.0259 198.0794 179.6119 200.8256 175.6752 202.9093 C 174.0988 200.5546 172.961 200.3278 172.961 196.122 Z " fill="#dcdcdb" fill-rule="evenodd"/>
<path transform="matrix(2.7777777,0,0,-2.7777777,0,629.9214)" stroke-width=".5669" stroke-linecap="butt" stroke-miterlimit="22.925585" stroke-linejoin="miter" fill="none" stroke="#000000" d="M 172.961 196.122 C 172.961 192.9356 175.3773 183.9056 182.4602 183.9056 C 183.1411 188.5419 183.6306 189.1199 182.8018 193.7489 C 182.0259 198.0794 179.6119 200.8256 175.6752 202.9093 C 174.0988 200.5546 172.961 200.3278 172.961 196.122 Z "/>
<path transform="matrix(2.7777777,0,0,-2.7777777,0,629.9214)" d="M 81.362 173.046 C 87.1977 162.0136 109.1854 163.8323 96.4142 173.1711 C 92.4871 176.0426 85.3169 177.1126 82.2787 174.1649 Z " fill="#dcdcdb" fill-rule="evenodd"/>
<path transform="matrix(2.7777777,0,0,-2.7777777,0,629.9214)" stroke-width=".5669" stroke-linecap="butt" stroke-miterlimit="22.925585" stroke-linejoin="miter" fill="none" stroke="#000000" d="M 81.362 173.046 C 87.1977 162.0136 109.1854 163.8323 96.4142 173.1711 C 92.4871 176.0426 85.3169 177.1126 82.2787 174.1649 Z "/>
<path transform="matrix(2.7777777,0,0,-2.7777777,0,629.9214)" d="M 17.5816 94.3157 C 25.4962 92.4712 33.1872 97.6737 33.1872 107.2111 C 28.0786 107.2111 25.1487 107.0442 21.7959 103.6749 C 19.6342 101.5024 17.8965 98.1026 17.5816 94.3157 Z " fill="#e5e5e4" fill-rule="evenodd"/>
<path transform="matrix(2.7777777,0,0,-2.7777777,0,629.9214)" stroke-width=".5669" stroke-linecap="butt" stroke-miterlimit="22.925585" stroke-linejoin="miter" fill="none" stroke="#000000" d="M 17.5816 94.3157 C 25.4962 92.4712 33.1872 97.6737 33.1872 107.2111 C 28.0786 107.2111 25.1487 107.0442 21.7959 103.6749 C 19.6342 101.5024 17.8965 98.1026 17.5816 94.3157 Z "/>
<path transform="matrix(2.7777777,0,0,-2.7777777,0,629.9214)" d="M 199.423 147.2553 C 206.8209 147.2553 213.7354 157.0853 209.6008 164.9015 C 205.4854 164.5588 201.6558 160.0251 200.1759 156.6811 C 198.0386 151.8534 199.3346 151.2306 199.423 147.2553 Z " fill="#e0e1e0" fill-rule="evenodd"/>
<path transform="matrix(2.7777777,0,0,-2.7777777,0,629.9214)" stroke-width=".5669" stroke-linecap="butt" stroke-miterlimit="22.925585" stroke-linejoin="miter" fill="none" stroke="#000000" d="M 199.423 147.2553 C 206.8209 147.2553 213.7354 157.0853 209.6008 164.9015 C 205.4854 164.5588 201.6558 160.0251 200.1759 156.6811 C 198.0386 151.8534 199.3346 151.2306 199.423 147.2553 Z "/>
<path transform="matrix(2.7777777,0,0,-2.7777777,0,629.9214)" d="M 155.9982 209.0177 C 155.9982 202.2296 160.6436 194.9031 166.8543 194.7648 C 167.0992 197.7077 169.1359 201.06 164.8094 207.6508 C 162.9298 210.5141 161.3696 212.4113 156.6768 212.4113 C 156.3222 210.8891 155.9982 210.8509 155.9982 209.0177 Z " fill="#dadada" fill-rule="evenodd"/>
<path transform="matrix(2.7777777,0,0,-2.7777777,0,629.9214)" stroke-width=".5669" stroke-linecap="butt" stroke-miterlimit="22.925585" stroke-linejoin="miter" fill="none" stroke="#000000" d="M 155.9982 209.0177 C 155.9982 202.2296 160.6436 194.9031 166.8543 194.7648 C 167.0992 197.7077 169.1359 201.06 164.8094 207.6508 C 162.9298 210.5141 161.3696 212.4113 156.6768 212.4113 C 156.3222 210.8891 155.9982 210.8509 155.9982 209.0177 Z "/>
<path transform="matrix(2.7777777,0,0,-2.7777777,0,629.9214)" d="M 5.3685 133.681 C 5.5582 131.3989 5.7348 131.2404 6.8817 129.765 C 10.0517 125.6871 16.058 123.5004 18.2599 123.5004 C 20.378 123.5004 22.1871 124.7417 23.6883 125.5365 C 22.0663 132.5004 12.856 137.2745 5.3685 133.681 Z " fill="#e5e5e4" fill-rule="evenodd"/>
<path transform="matrix(2.7777777,0,0,-2.7777777,0,629.9214)" stroke-width=".5669" stroke-linecap="butt" stroke-miterlimit="22.925585" stroke-linejoin="miter" fill="none" stroke="#000000" d="M 5.3685 133.681 C 5.5582 131.3989 5.7348 131.2404 6.8817 129.765 C 10.0517 125.6871 16.058 123.5004 18.2599 123.5004 C 20.378 123.5004 22.1871 124.7417 23.6883 125.5365 C 22.0663 132.5004 12.856 137.2745 5.3685 133.681 Z "/>
<path transform="matrix(2.7777777,0,0,-2.7777777,0,629.9214)" d="M 202.1369 136.3958 C 217.2285 136.3958 219.992 147.9336 215.0289 147.9336 C 210.1771 147.9336 206.6822 147.4285 203.1094 143.5674 C 201.5626 141.8956 197.0938 136.3958 202.1369 136.3958 Z " fill="#e1e2e1" fill-rule="evenodd"/>
<path transform="matrix(2.7777777,0,0,-2.7777777,0,629.9214)" stroke-width=".5669" stroke-linecap="butt" stroke-miterlimit="22.925585" stroke-linejoin="miter" fill="none" stroke="#000000" d="M 202.1369 136.3958 C 217.2285 136.3958 219.992 147.9336 215.0289 147.9336 C 210.1771 147.9336 206.6822 147.4285 203.1094 143.5674 C 201.5626 141.8956 197.0938 136.3958 202.1369 136.3958 Z "/>
<path transform="matrix(2.7777777,0,0,-2.7777777,0,629.9214)" d="M 141.071 158.7932 C 145.9086 158.7932 148.7426 159.5381 151.6723 161.7633 C 153.9397 163.4854 156.5969 166.7494 156.6768 170.3313 C 142.8035 173.5642 136.1106 158.7932 141.071 158.7932 Z " fill="#e1e2e1" fill-rule="evenodd"/>
<path transform="matrix(2.7777777,0,0,-2.7777777,0,629.9214)" stroke-width=".5669" stroke-linecap="butt" stroke-miterlimit="22.925585" stroke-linejoin="miter" fill="none" stroke="#000000" d="M 141.071 158.7932 C 145.9086 158.7932 148.7426 159.5381 151.6723 161.7633 C 153.9397 163.4854 156.5969 166.7494 156.6768 170.3313 C 142.8035 173.5642 136.1106 158.7932 141.071 158.7932 Z "/>
<path transform="matrix(2.7777777,0,0,-2.7777777,0,629.9214)" d="M 20.2958 57.6655 C 20.2958 53.176 20.5132 53.2502 23.0097 49.521 C 34.3106 55.5024 31.0589 72.9394 25.2269 67.7477 C 23.5295 66.2369 20.2958 60.5058 20.2958 57.6655 Z " fill="#e1e2e1" fill-rule="evenodd"/>
<path transform="matrix(2.7777777,0,0,-2.7777777,0,629.9214)" stroke-width=".5669" stroke-linecap="butt" stroke-miterlimit="22.925585" stroke-linejoin="miter" fill="none" stroke="#000000" d="M 20.2958 57.6655 C 20.2958 53.176 20.5132 53.2502 23.0097 49.521 C 34.3106 55.5024 31.0589 72.9394 25.2269 67.7477 C 23.5295 66.2369 20.2958 60.5058 20.2958 57.6655 Z "/>
<path transform="matrix(2.7777777,0,0,-2.7777777,0,629.9214)" d="M 23.6883 173.7249 C 23.6883 172.7167 24.7972 171.2503 25.4806 170.0881 C 29.7125 162.8909 39.9725 160.5906 39.9725 164.9015 C 39.9725 166.9788 37.6435 170.64 36.6256 171.7345 C 36.4527 171.9204 34.0792 173.9452 33.7017 174.2391 C 31.4759 175.972 23.6883 177.2776 23.6883 173.7249 Z " fill="#e0e1e0" fill-rule="evenodd"/>
<path transform="matrix(2.7777777,0,0,-2.7777777,0,629.9214)" stroke-width=".5669" stroke-linecap="butt" stroke-miterlimit="22.925585" stroke-linejoin="miter" fill="none" stroke="#000000" d="M 23.6883 173.7249 C 23.6883 172.7167 24.7972 171.2503 25.4806 170.0881 C 29.7125 162.8909 39.9725 160.5906 39.9725 164.9015 C 39.9725 166.9788 37.6435 170.64 36.6256 171.7345 C 36.4527 171.9204 34.0792 173.9452 33.7017 174.2391 C 31.4759 175.972 23.6883 177.2776 23.6883 173.7249 Z "/>
<path transform="matrix(2.7777777,0,0,-2.7777777,0,629.9214)" d="M 20.2958 73.9545 C 20.2958 70.2575 27.9017 71.329 30.814 72.9343 C 32.9499 74.1115 37.9369 78.99 37.9369 80.7415 L 37.9369 82.7776 C 30.8911 82.7776 28.4131 83.7247 24.1662 79.5847 C 23.0632 78.5095 20.2958 75.581 20.2958 73.9545 Z " fill="#e5e5e5" fill-rule="evenodd"/>
<path transform="matrix(2.7777777,0,0,-2.7777777,0,629.9214)" stroke-width=".5669" stroke-linecap="butt" stroke-miterlimit="22.925585" stroke-linejoin="miter" fill="none" stroke="#000000" d="M 20.2958 73.9545 C 20.2958 70.2575 27.9017 71.329 30.814 72.9343 C 32.9499 74.1115 37.9369 78.99 37.9369 80.7415 L 37.9369 82.7776 C 30.8911 82.7776 28.4131 83.7247 24.1662 79.5847 C 23.0632 78.5095 20.2958 75.581 20.2958 73.9545 Z "/>
<path transform="matrix(2.7777777,0,0,-2.7777777,0,629.9214)" d="M 127.5007 58.3441 C 132.9355 57.0776 137.5274 55.425 143.42 59.3878 C 145.7646 60.965 146.9024 61.8214 147.1774 65.1311 C 140.1809 66.7619 134.3154 67.788 129.2783 61.9957 C 127.6157 60.0837 127.7246 61.0353 127.5007 58.3441 Z " fill="#e3e3e3" fill-rule="evenodd"/>
<path transform="matrix(2.7777777,0,0,-2.7777777,0,629.9214)" stroke-width=".5669" stroke-linecap="butt" stroke-miterlimit="22.925585" stroke-linejoin="miter" fill="none" stroke="#000000" d="M 127.5007 58.3441 C 132.9355 57.0776 137.5274 55.425 143.42 59.3878 C 145.7646 60.965 146.9024 61.8214 147.1774 65.1311 C 140.1809 66.7619 134.3154 67.788 129.2783 61.9957 C 127.6157 60.0837 127.7246 61.0353 127.5007 58.3441 Z "/>
<path transform="matrix(2.7777777,0,0,-2.7777777,0,629.9214)" d="M 76.6123 205.6243 C 76.6123 203.7535 76.7407 202.356 77.0491 201.3103 C 77.0797 201.206 77.1083 197.9181 80.4634 198.648 C 83.2105 199.2455 89.2684 207.3461 84.0759 217.1622 C 78.7414 216.7183 76.6123 211.3926 76.6123 205.6243 Z " fill="#dadada" fill-rule="evenodd"/>
<path transform="matrix(2.7777777,0,0,-2.7777777,0,629.9214)" stroke-width=".5669" stroke-linecap="butt" stroke-miterlimit="22.925585" stroke-linejoin="miter" fill="none" stroke="#000000" d="M 76.6123 205.6243 C 76.6123 203.7535 76.7407 202.356 77.0491 201.3103 C 77.0797 201.206 77.1083 197.9181 80.4634 198.648 C 83.2105 199.2455 89.2684 207.3461 84.0759 217.1622 C 78.7414 216.7183 76.6123 211.3926 76.6123 205.6243 Z "/>
<path transform="matrix(2.7777777,0,0,-2.7777777,0,629.9214)" d="M 140.3923 210.3752 C 140.3923 204.9517 140.0312 205.6578 142.9424 201.3877 C 144.7957 198.6693 144.6086 199.2005 147.1774 197.4796 C 152.6672 205.6802 149.1239 216.6049 142.4279 217.1622 C 141.698 214.4282 140.3923 214.4395 140.3923 210.3752 Z " fill="#dadada" fill-rule="evenodd"/>
<path transform="matrix(2.7777777,0,0,-2.7777777,0,629.9214)" stroke-width=".5669" stroke-linecap="butt" stroke-miterlimit="22.925585" stroke-linejoin="miter" fill="none" stroke="#000000" d="M 140.3923 210.3752 C 140.3923 204.9517 140.0312 205.6578 142.9424 201.3877 C 144.7957 198.6693 144.6086 199.2005 147.1774 197.4796 C 152.6672 205.6802 149.1239 216.6049 142.4279 217.1622 C 141.698 214.4282 140.3923 214.4395 140.3923 210.3752 Z "/>
<path transform="matrix(2.7777777,0,0,-2.7777777,0,629.9214)" d="M 181.7816 150.6487 L 181.7816 145.8978 C 185.442 145.8978 187.9965 145.9417 191.9801 150.628 C 194.9766 154.1529 194.6735 156.3372 194.6735 159.4718 C 194.6735 165.7267 181.7816 156.6028 181.7816 150.6487 Z " fill="#e5e5e5" fill-rule="evenodd"/>
<path transform="matrix(2.7777777,0,0,-2.7777777,0,629.9214)" stroke-width=".5669" stroke-linecap="butt" stroke-miterlimit="22.925585" stroke-linejoin="miter" fill="none" stroke="#000000" d="M 181.7816 150.6487 L 181.7816 145.8978 C 185.442 145.8978 187.9965 145.9417 191.9801 150.628 C 194.9766 154.1529 194.6735 156.3372 194.6735 159.4718 C 194.6735 165.7267 181.7816 156.6028 181.7816 150.6487 Z "/>
<path transform="matrix(2.7777777,0,0,-2.7777777,0,629.9214)" d="M 181.7816 179.1544 C 181.7816 174.4648 179.9425 166.3866 189.4397 174.888 C 193.7492 178.7454 196.9106 194.4459 186.5146 185.959 C 185.4247 185.0692 181.7816 180.7832 181.7816 179.1544 Z " fill="#e0e1e0" fill-rule="evenodd"/>
<path transform="matrix(2.7777777,0,0,-2.7777777,0,629.9214)" stroke-width=".5669" stroke-linecap="butt" stroke-miterlimit="22.925585" stroke-linejoin="miter" fill="none" stroke="#000000" d="M 181.7816 179.1544 C 181.7816 174.4648 179.9425 166.3866 189.4397 174.888 C 193.7492 178.7454 196.9106 194.4459 186.5146 185.959 C 185.4247 185.0692 181.7816 180.7832 181.7816 179.1544 Z "/>
<path transform="matrix(2.7777777,0,0,-2.7777777,0,629.9214)" d="M 120.037 209.0177 L 120.037 204.2668 C 130.9949 204.2668 137.0954 219.8772 131.5718 219.8772 C 128.4727 219.8772 129.9308 220.1355 126.9017 218.4403 C 124.4112 217.0463 120.037 212.7563 120.037 209.0177 Z " fill="#dddddd" fill-rule="evenodd"/>
<path transform="matrix(2.7777777,0,0,-2.7777777,0,629.9214)" stroke-width=".5669" stroke-linecap="butt" stroke-miterlimit="22.925585" stroke-linejoin="miter" fill="none" stroke="#000000" d="M 120.037 209.0177 L 120.037 204.2668 C 130.9949 204.2668 137.0954 219.8772 131.5718 219.8772 C 128.4727 219.8772 129.9308 220.1355 126.9017 218.4403 C 124.4112 217.0463 120.037 212.7563 120.037 209.0177 Z "/>
<path transform="matrix(2.7777777,0,0,-2.7777777,0,629.9214)" d="M 92.8964 217.8408 C 92.8964 214.4957 94.9479 210.9104 96.7907 208.8405 C 100.1959 205.0166 108.8702 200.3973 106.6105 209.082 C 104.4207 217.4961 92.8964 223.2306 92.8964 217.8408 Z " fill="#dcdcdb" fill-rule="evenodd"/>
<path transform="matrix(2.7777777,0,0,-2.7777777,0,629.9214)" stroke-width=".5669" stroke-linecap="butt" stroke-miterlimit="22.925585" stroke-linejoin="miter" fill="none" stroke="#000000" d="M 92.8964 217.8408 C 92.8964 214.4957 94.9479 210.9104 96.7907 208.8405 C 100.1959 205.0166 108.8702 200.3973 106.6105 209.082 C 104.4207 217.4961 92.8964 223.2306 92.8964 217.8408 Z "/>
<path transform="matrix(2.7777777,0,0,-2.7777777,0,629.9214)" d="M 79.3261 65.1311 C 79.4852 58.0022 92.0248 54.3487 99.0031 59.0227 C 97.8922 61.1232 96.7615 62.9487 94.8433 64.3637 C 90.5037 67.5646 84.0779 66.2386 79.3261 65.1311 Z " fill="#e5e5e4" fill-rule="evenodd"/>
<path transform="matrix(2.7777777,0,0,-2.7777777,0,629.9214)" stroke-width=".5669" stroke-linecap="butt" stroke-miterlimit="22.925585" stroke-linejoin="miter" fill="none" stroke="#000000" d="M 79.3261 65.1311 C 79.4852 58.0022 92.0248 54.3487 99.0031 59.0227 C 97.8922 61.1232 96.7615 62.9487 94.8433 64.3637 C 90.5037 67.5646 84.0779 66.2386 79.3261 65.1311 Z "/>
<path transform="matrix(2.7777777,0,0,-2.7777777,0,629.9214)" d="M 203.4941 117.3917 C 209.6918 113.2407 218.2544 109.713 223.8494 118.0706 C 216.726 122.8422 219.7074 122.1429 210.9577 122.1429 C 206.875 122.1429 204.8598 119.9738 203.4941 117.3917 Z " fill="#e9e9e9" fill-rule="evenodd"/>
<path transform="matrix(2.7777777,0,0,-2.7777777,0,629.9214)" stroke-width=".5669" stroke-linecap="butt" stroke-miterlimit="22.925585" stroke-linejoin="miter" fill="none" stroke="#000000" d="M 203.4941 117.3917 C 209.6918 113.2407 218.2544 109.713 223.8494 118.0706 C 216.726 122.8422 219.7074 122.1429 210.9577 122.1429 C 206.875 122.1429 204.8598 119.9738 203.4941 117.3917 Z "/>
<path transform="matrix(2.7777777,0,0,-2.7777777,0,629.9214)" d="M 60.3281 194.7648 C 64.9894 195.8511 67.9195 198.9964 69.3187 203.4179 C 74.2836 219.1082 60.3425 211.864 58.6738 199.8179 C 58.3325 197.354 59.163 196.505 60.3281 194.7648 Z " fill="#d8d9d9" fill-rule="evenodd"/>
<path transform="matrix(2.7777777,0,0,-2.7777777,0,629.9214)" stroke-width=".5669" stroke-linecap="butt" stroke-miterlimit="22.925585" stroke-linejoin="miter" fill="none" stroke="#000000" d="M 60.3281 194.7648 C 64.9894 195.8511 67.9195 198.9964 69.3187 203.4179 C 74.2836 219.1082 60.3425 211.864 58.6738 199.8179 C 58.3325 197.354 59.163 196.505 60.3281 194.7648 Z "/>
<path transform="matrix(2.7777777,0,0,-2.7777777,0,629.9214)" d="M 9.4394 76.6692 C 9.4394 74.9923 12.0563 75.312 13.5105 75.312 C 14.6001 75.312 19.3416 78.4046 21.0501 81.3444 C 23.881 86.2155 26.079 93.1377 17.2684 89.2196 C 12.6972 87.1869 9.4394 81.7855 9.4394 76.6692 Z " fill="#e1e2e1" fill-rule="evenodd"/>
<path transform="matrix(2.7777777,0,0,-2.7777777,0,629.9214)" stroke-width=".5669" stroke-linecap="butt" stroke-miterlimit="22.925585" stroke-linejoin="miter" fill="none" stroke="#000000" d="M 9.4394 76.6692 C 9.4394 74.9923 12.0563 75.312 13.5105 75.312 C 14.6001 75.312 19.3416 78.4046 21.0501 81.3444 C 23.881 86.2155 26.079 93.1377 17.2684 89.2196 C 12.6972 87.1869 9.4394 81.7855 9.4394 76.6692 Z "/>
<path transform="matrix(2.7777777,0,0,-2.7777777,0,629.9214)" d="M 189.2452 162.8654 C 192.9175 162.8654 197.0768 165.3503 198.8705 167.4904 C 199.9346 168.7601 205.3772 175.7608 200.7802 175.7608 C 193.7049 175.7608 189.1278 173.2473 186.66 165.9668 C 185.7934 163.4111 186.0687 162.8654 189.2452 162.8654 Z " fill="#e1e2e1" fill-rule="evenodd"/>
<path transform="matrix(2.7777777,0,0,-2.7777777,0,629.9214)" stroke-width=".5669" stroke-linecap="butt" stroke-miterlimit="22.925585" stroke-linejoin="miter" fill="none" stroke="#000000" d="M 189.2452 162.8654 C 192.9175 162.8654 197.0768 165.3503 198.8705 167.4904 C 199.9346 168.7601 205.3772 175.7608 200.7802 175.7608 C 193.7049 175.7608 189.1278 173.2473 186.66 165.9668 C 185.7934 163.4111 186.0687 162.8654 189.2452 162.8654 Z "/>
</g>
</g>
</svg>
